<?xml version="1.0" encoding="UTF-8" standalone="no"?>
<svg
   xmlns:dc="http://purl.org/dc/elements/1.1/"
   xmlns:cc="http://creativecommons.org/ns#"
   xmlns:rdf="http://www.w3.org/1999/02/22-rdf-syntax-ns#"
   xmlns:svg="http://www.w3.org/2000/svg"
   xmlns="http://www.w3.org/2000/svg"
   xmlns:sodipodi="http://sodipodi.sourceforge.net/DTD/sodipodi-0.dtd"
   xmlns:inkscape="http://www.inkscape.org/namespaces/inkscape"
   width="210mm"
   height="297mm"
   viewBox="0 0 210 297"
   version="1.1"
   id="svg8"
   inkscape:version="1.0.2 (e86c870879, 2021-01-15)"
   sodipodi:docname="tshirt.svg">
  <defs
     id="defs2">
    <clipPath
       clipPathUnits="userSpaceOnUse"
       id="clipPath1178">
      <path
         style="display:inline;fill:#ffffff;fill-opacity:1;stroke:none;stroke-width:0.999999px;stroke-linecap:butt;stroke-linejoin:miter;stroke-opacity:1"
         d="m -110.95413,1372.1029 -1.81895,10.2856 0.88266,6.9648 21.826666,-1.0926 38.602942,-0.8953 32.796912,1.2379 30.575488,3.909 43.312882,6.2626 35.114634,9.3055 31.985786,7.7924 28.11829,8.2136 30.49694,11.7203 19.08463,9.0754 2.56386,-9.1937 1.70142,-12.8642 -1.47934,-17.612 -8.50479,-19.2213 -12.06683,-17.745 -17.30614,-15.9793 -29.58988,-12.8407 -30.66858,-8.5816 -31.337915,-7.3072 -45.019237,-8.9395 -33.746888,-1.2181 -28.221753,-0.9759 -26.778168,8.0336 -21.233428,9.3779 -15.876359,16.5775 -9.153152,12.0014 z"
         id="path1180" />
    </clipPath>
    <clipPath
       clipPathUnits="userSpaceOnUse"
       id="clipPath1182">
      <path
         style="display:inline;fill:#ffffff;fill-opacity:1;stroke:none;stroke-width:0.264583px;stroke-linecap:butt;stroke-linejoin:miter;stroke-opacity:1"
         d="m 152.87577,372.34678 4.78139,-3.1718 8.22276,-4.39854 11.1833,-4.758 5.29334,-2.17334 2.66447,-0.90779 4.58698,-0.46334 4.86049,-0.0314 3.5247,0.66418 2.6544,0.83137 1.28407,0.90879 0.63039,1.2858 -0.27467,1.65182 -1.54817,1.58657 -1.99825,1.38277 -4.47986,2.18308 -3.06792,1.24081 -3.36301,0.96578 -4.4089,1.04712 -5.77478,0.70033 -10.6859,1.14916 -5.43315,0.7647 -4.3679,0.16772 z"
         id="path1184" />
    </clipPath>
    <clipPath
       clipPathUnits="userSpaceOnUse"
       id="clipPath1341">
      <path
         style="display:inline;fill:#ffffff;stroke:none;stroke-width:0.999999px;stroke-linecap:butt;stroke-linejoin:miter;stroke-opacity:1"
         d="m 647.24751,299.7927 36.6794,-0.27099 33.22031,-3.72608 29.23828,-7.63468 39.77835,-15.36724 39.36941,-20.49565 31.02637,-20.72624 30.12911,-22.49868 25.46309,-25.81451 10.2635,32.77243 8.12292,33.08845 5.08203,22.29229 -16.75064,17.22537 -10.33009,14.0742 -6.77934,10.25325 -3.73009,8.51129 -1.18934,9.41522 1.91633,7.34131 5.01536,5.21405 9.03662,3.98286 -5.95646,7.24139 -2.77356,8.66977 -0.18369,8.20528 2.94176,7.29663 4.39547,4.43248 6.71169,3.22764 4.06099,1.36301 -2.68245,7.5614 -0.53771,6.58652 0.70889,4.41411 4.49359,4.60157 7.6441,3.44205 9.16055,2.45723 0.62808,6.14124 4.28202,6.09936 4.92393,3.38185 8.14137,0.0227 8.75901,-2.75346 6.59804,-2.02174 2.94263,0.23924 2.76359,4.43977 8.17946,30.51606 10.35492,35.69764 6.20649,20.36666 -0.1984,9.55643 -3.4552,9.08738 -14.39834,21.15095 -14.79012,13.95727 -12.73338,8.65829 -21.62752,14.04204 -24.9377,11.83881 -24.77121,9.35217 -23.55152,7.16032 -14.17418,2.55828 -13.4287,0.52513 -17.90452,-1.49673 -10.15835,-2.71442 -7.54179,-4.67437 -8.27973,-5.52567 -8.93945,-16.07728 -15.10307,-33.35187 -24.90063,-55.35194 -10.43115,-22.49499 -11.18793,-20.88317 -11.06521,-24.82417 10.26036,-4.21481 16.3257,-5.26432 10.43305,-5.64831 10.09327,-6.8346 7.00902,-8.44452 4.39804,-8.1919 0.96934,-8.40356 -2.45288,-9.61546 -6.2132,-8.71936 -11.19364,-5.1357 -10.88269,-1.79573 -11.9647,2.93122 -11.12478,3.72208 -13.18957,4.62461 -9.46106,3.84443 -6.85591,1.58339 -3.89367,-3.37897 -14.48965,-27.6535 -10.83802,-24.68922 -10.25878,-24.52909 z"
         id="path1343" />
    </clipPath>
  </defs>
  <sodipodi:namedview
     id="base"
     pagecolor="#ffffff"
     bordercolor="#666666"
     borderopacity="1.0"
     inkscape:pageopacity="0.0"
     inkscape:pageshadow="2"
     inkscape:zoom="0.49497475"
     inkscape:cx="137.93653"
     inkscape:cy="398.01657"
     inkscape:document-units="mm"
     inkscape:current-layer="g1587"
     inkscape:document-rotation="0"
     showgrid="false"
     inkscape:window-width="2560"
     inkscape:window-height="1403"
     inkscape:window-x="1920"
     inkscape:window-y="18"
     inkscape:window-maximized="0" />
  <metadata
     id="metadata5">
    <rdf:RDF>
      <cc:Work
         rdf:about="">
        <dc:format>image/svg+xml</dc:format>
        <dc:type
           rdf:resource="http://purl.org/dc/dcmitype/StillImage" />
        <dc:title></dc:title>
      </cc:Work>
    </rdf:RDF>
  </metadata>
  <g
     inkscape:groupmode="layer"
     id="g1643"
     inkscape:label="Trace Small"
     style="display:inline">
    <g
       inkscape:groupmode="layer"
       id="g1439"
       inkscape:label="Body"
       style="display:inline">
      <g
         inkscape:groupmode="layer"
         id="g1347"
         inkscape:label="Black"
         style="display:inline">
        <path
           id="path1345"
           style="opacity:1;fill:#000000;fill-opacity:1;stroke:none;stroke-width:0.135908px;stroke-linecap:butt;stroke-linejoin:miter;stroke-opacity:1"
           d="m 114.07396,86.318498 -0.75095,2.87955 -1.11354,2.77577 -1.2484,2.06756 -0.90729,1.35351 -0.99622,1.3482 -0.64689,0.46665 -3.3717,0.1168 -4.11335,0.40481 -3.894886,0.33923 -3.24454,0.22962 -4.78759,0.89561 -2.50554,0.55744 -2.33911,0.631762 -3.18137,1.07957 -3.17049,1.20061 -3.41761,1.58763 -2.79462,1.59746 -2.5581,1.5494 -2.06809,1.52446 -1.84087,1.61179 -1.4727,1.57914 -1.33413,1.7177 -1.16053,1.91466 -1.26166,2.48219 -0.75652,2.27991 -0.68565,2.35849 -0.4932,2.79222 -0.14599,3.20659 0.42975,3.5875 0.71246,2.7487 0.76502,2.39777 1.61178,2.97379 1.32511,1.97519 1.96165,2.27328 1.88519,1.66222 2.13339,1.5372 2.12755,1.02993 2.71419,1.16318 3.62626,1.18097 3.03192,0.77643 3.13332,0.42896 2.33858,0.22483 -0.009,1.90856 -0.26386,1.3851 -0.47753,0.84385 -0.55187,1.11036 -2.02004,5.52393 -1.55817,3.9424 -1.10983,0.0552 -0.45975,0.23624 -0.56221,0.75891 -1.2123,2.67172 -0.18342,0.54071 -0.77218,0.91446 -0.88367,1.32033 -6.9884,13.37052 -0.18024,0.76846 0.21316,1.22158 0.40666,0.46188 -3.75553,4.94977 -5.48677,8.81599 -3.74544,5.74319 -5.57516,8.76583 -5.24468,8.79023 -9.45333,15.53444 -6.00811,11.3064 -1.03789,0.75679 -1.55498,0.7199 -0.78439,0.6644 -1.06736,1.32564 -1.86317,3.43381 -0.55505,2.94752 0.63999,2.21938 1.68718,0.64637 -0.38437,1.42943 -0.14838,1.72938 -5.5e-4,1.95925 0.71459,4.47277 1.16557,5.41801 0.48178,1.40235 1.55711,0.87147 3.639,1.11008 5.03471,1.09498 5.12922,0.76846 6.3338,0.60548 7.31755,0.28084 5.27309,-0.0448 6.07818,-0.28059 2.52731,-3.34117 1.8114,-3.30054 1.11727,-2.70915 3.00511,-1.07002 0.653,-1.76016 0.70714,-2.97804 0.75467,-2.86974 0.0921,-1.74982 -0.27925,-2.0503 -0.61212,-1.18469 1.0209,-10.55147 1.27202,-13.41406 1.5003,-12.06664 1.79176,-11.9456 2.13631,-10.59819 1.57914,-5.96113 2.65287,-8.06106 2.22789,-5.32989 1.8767,-3.53547 1.91997,-3.43806 0.9341,-1.77344 1.80291,-2.33089 0.77245,3.17341 0.59274,4.65831 0.39339,3.82428 1.290066,9.64153 -0.49214,5.30122 -1.232726,10.20322 -0.66786,6.66375 -0.83005,6.54883 -0.24846,3.49007 -0.0921,4.80776 0.052,3.61883 0.36446,6.24302 0.78306,8.52188 1.829186,11.17235 2.55306,7.4808 -0.13803,2.01978 2.9645,5.36386 4.88845,-1.1284 5.9805,0.77935 6.93903,0.51788 7.57768,-0.36871 10.38903,-0.90065 3.25596,-0.56327 2.72533,-6.99424 0.68883,-1.24043 0.52691,-1.61152 -0.10087,-0.81174 -0.41489,-0.72467 -1.08541,-0.91367 -1.92183,-0.9256 -2.16949,-0.55876 -1.92607,-0.335 -2.30912,-0.11096 0.23545,-2.35848 -0.0478,-1.0156 -0.36419,-1.34183 -0.64158,-0.51735 -0.88208,-0.31987 h -0.51549 l -1.39758,-8.27925 -1.42863,-5.65028 -1.62984,-5.4029 -4.02203,-11.70378 -3.28039,-8.35836 -2.79992,-7.63237 -1.15177,-4.1659 -1.23592,-5.13692 -0.48868,-4.98613 -0.45179,-4.18768 0.12821,-2.61199 -0.43746,-2.91459 -0.83111,-3.80756 -1.01453,-5.13373 -1.33413,-4.22616 -0.71458,-1.77132 -0.50143,-0.4348 -0.33473,-0.189 -1.01825,-5.56587 -0.29571,-2.50661 -0.42046,-3.47071 -1.27494,-9.16001 -0.58212,-6.52784 -0.25616,-4.67822 0.0449,-4.71618 0.33765,-4.02841 0.51948,-2.95494 0.92561,-3.06989 1.41695,-3.91506 1.62532,-2.50687 1.9513,-2.60005 1.78114,-2.03756 0.8481,-1.20619 0.69388,-2.10472 -0.4072,-2.16365 2.4437,0.275 3.52539,1.10665 1.73761,0.74458 2.19444,1.2675 1.46154,1.46393 3.14554,3.20765 7.24402,-8.04566 -5.89476,-2.55598 -3.76456,-1.37953 -1.96907,-0.80987 -3.19703,-1.20353 -3.90047,-1.158412 -2.61146,-0.71564 -3.22198,-0.74033 0.55213,-3.32577 0.69069,-2.18622 0.68857,-1.68478 2.72082,-3.70749 z m -17.916806,18.662972 2.595,0.27261 2.742316,0.32571 0.12582,3.76747 -0.24633,4.07486 -0.89482,5.09258 -1.080096,4.75255 -1.32086,4.85713 -1.39996,4.29253 -1.38908,3.83543 -1.47614,3.4707 -1.77451,3.14076 -1.66435,2.86708 -1.23087,1.95183 -0.47196,0.0486 -0.77776,0.41569 -1.08647,1.17832 -0.9065,1.13849 -2.33725,-0.45683 -3.61882,-0.90225 -2.466,-0.86297 -2.88938,-1.15416 -2.98255,-2.23824 -2.22656,-2.15515 -1.58976,-2.23957 -1.26458,-2.91752 -0.8266,-2.54483 -0.623,-2.51828 -0.23094,-2.53475 -0.12396,-2.76382 0.33526,-2.47077 0.53407,-2.38052 1.0448,-2.33327 1.13133,-2.07632 1.51012,-2.19179 1.72726,-1.84405 2.06119,-1.92687 2.74126,-1.68665 2.60668,-1.27891 2.21116,-1.01162 2.05827,-0.99861 2.66933,-0.83191 2.59234,-0.56035 2.80815,-0.32464 3.06538,-0.17095 z" />
      </g>
      <g
         inkscape:groupmode="layer"
         id="g1353"
         inkscape:label="Shoe Soles"
         style="display:inline">
        <path
           style="fill:#2e97f1;fill-opacity:1;stroke:none;stroke-width:0.135908px;stroke-linecap:butt;stroke-linejoin:miter;stroke-opacity:1"
           d="m 27.231844,271.02928 -0.35041,0.66711 0.005,1.45379 1.24673,7.39546 0.46249,1.07801 1.65867,0.68433 2.65456,0.70871 6.63225,1.41103 7.01882,0.95944 5.15506,0.51818 5.86103,0.0707 7.8932,-0.20362 1.12869,-1.45913 1.15707,-2.08846 0.85416,-2.19681 0.14332,-1.01398 -0.96475,-1.04226 -4.17431,-1.24038 -6.81673,-1.66383 -6.05485,-1.3361 -5.78762,-1.10461 -5.54334,-0.83305 -4.08916,-0.53608 -4.18584,-0.30686 -2.20272,-0.17132 -1.1545,-0.0187 z"
           id="path1349" />
        <path
           style="fill:#2e97f1;fill-opacity:1;stroke:none;stroke-width:0.135908px;stroke-linecap:butt;stroke-linejoin:miter;stroke-opacity:1"
           d="m 113.03053,275.47069 0.0878,-0.48878 0.41138,-0.40003 0.87257,-0.46241 1.84957,-0.9163 1.32647,-0.4928 3.37509,0.0817 3.3259,-0.37039 5.85123,-1.22592 12.35836,-3.74568 1.54357,0.6313 0.71536,0.49343 0.52686,0.57925 -0.81347,1.63327 -1.24472,3.05997 -0.48663,0.47767 -2.06964,0.44628 -4.37696,0.75137 -3.78046,0.40136 -4.72551,0.27915 -3.41589,0.10017 -3.96108,-0.0262 -3.3024,-0.27675 -2.73897,-0.31827 z"
           id="path1351"
           sodipodi:nodetypes="ccccccccccccccccccccccccc" />
      </g>
      <g
         inkscape:groupmode="layer"
         id="g1367"
         inkscape:label="Shoe Uppers">
        <g
           inkscape:groupmode="layer"
           id="g1359"
           inkscape:label="Shoe Uppers White"
           style="display:inline">
          <path
             style="fill:#ffffff;fill-opacity:1;stroke:none;stroke-width:0.135908px;stroke-linecap:butt;stroke-linejoin:miter;stroke-opacity:1"
             d="m 27.123804,267.70137 -0.24721,1.3979 0.11996,0.94657 2.96643,-0.14849 5.24646,-0.12168 4.45738,0.16824 4.15546,0.53127 5.88658,0.85114 4.77237,1.26469 4.34714,1.05905 3.82151,1.1163 4.14479,1.59289 2.59376,1.23342 0.34845,-1.2495 0.23124,-1.74836 -0.20106,-2.39361 -1.15587,-2.61234 -1.63998,-2.41169 -2.35205,-2.17172 -4.02151,-1.74516 -4.16812,-1.16631 -4.25908,-0.99311 -6.11849,-1.21495 -4.58649,-0.16555 -3.83557,-0.13264 -3.63938,1.09184 -2.8858,1.27453 -2.15773,2.25303 -1.24398,1.63109 z"
             id="path1355" />
          <path
             style="fill:#ffffff;fill-opacity:1;stroke:none;stroke-width:0.135908px;stroke-linecap:butt;stroke-linejoin:miter;stroke-opacity:1"
             d="m 120.28976,272.78768 2.89729,-1.93268 4.22377,-2.2594 5.74452,-2.44404 2.71903,-1.11637 1.36866,-0.4663 2.35619,-0.23801 2.49668,-0.0161 1.81053,0.34118 1.36349,0.42705 0.65958,0.46682 0.32382,0.66047 -0.14109,0.84849 -0.79525,0.81497 -1.02644,0.71029 -2.30117,1.12138 -1.57589,0.63737 -1.72748,0.49609 -2.26472,0.53787 -2.96632,0.35973 -5.48902,0.5903 -2.79085,0.3928 -2.24365,0.0862 z"
             id="path1357"
             sodipodi:nodetypes="cccccccccccccccccccccccc" />
        </g>
        <g
           inkscape:groupmode="layer"
           id="g1365"
           inkscape:label="Shoe Uppers Blue"
           style="display:inline">
          <path
             style="fill:#2e97f1;fill-opacity:1;stroke:none;stroke-width:0.264583px;stroke-linecap:butt;stroke-linejoin:miter;stroke-opacity:1"
             d="m 156.88969,368.97519 7.03574,-1.26619 7.44321,-1.82851 6.1788,-1.27643 2.80907,-0.37886 3.54361,-0.0688 2.70827,-0.014 2.29918,0.33171 1.80956,0.86072 0.89789,1.1144 0.28104,2.23734 1.77466,-0.61045 -0.0363,-1.81057 -0.43648,-1.58914 -1.34598,-1.97101 -1.81569,-1.36046 -2.20922,-0.88133 -2.66675,-0.29771 -3.8995,-0.0467 -4.88982,0.64921 -5.42065,1.12033 -7.05246,2.10145 z"
             id="path1361"
             clip-path="url(#clipPath1182)"
             transform="matrix(0.51366934,0,0,0.51366934,42.203404,81.221138)" />
          <path
             id="path1363"
             style="fill:#2e97f1;fill-opacity:1;stroke:none;stroke-width:0.999999px;stroke-linecap:butt;stroke-linejoin:miter;stroke-opacity:1"
             d="m -50.925781,1311.9961 -15.3125,1.2109 -31.910157,22.0235 30.222657,7.2226 13.267578,4.5449 11.664062,6.9258 9.001953,7.7383 5.232422,7.1621 3.375,8.9297 -0.648437,6.9824 -5.941406,6.3575 26.6035152,6.2128 1.6972657,-10.4648 0.7773437,-10.457 -1.6132812,-11.2422 -2.5039063,-10.1504 -5.7558591,-10.6367 -6.265625,-8.2969 -9.6875,-9.1016 z m 209.156251,28.4375 -22.36524,8.5801 -11.34765,4.6679 -10.51172,5.7051 -7.99414,7.8887 -8.957032,10.5976 -5.587891,12.9981 -2.828125,12.373 0.05078,9.7871 22.013668,8.7442 -0.71289,-12.0859 1.49024,-6.3125 3.76367,-8.3731 5.69922,-5.0508 8.25,-5.6523 11.10547,-4.166 10.45508,-2.2383 14.55468,-1.5391 14.2168,1.1992 19.53711,5.7286 0.0996,-11.6368 z"
             transform="matrix(0.13590834,0,0,0.13590834,42.203404,81.221138)"
             clip-path="url(#clipPath1178)" />
        </g>
      </g>
      <g
         inkscape:groupmode="layer"
         id="g1399"
         inkscape:label="Pants Red">
        <path
           style="fill:#dd0e36;fill-opacity:1;stroke:none;stroke-width:0.135908px;stroke-linecap:butt;stroke-linejoin:miter;stroke-opacity:1"
           d="m 92.553954,145.06542 -0.45742,-0.0727 -0.3869,0.079 -0.22171,0.17513 -0.52016,0.748 -0.59652,1.09365 -0.36368,0.81194 -0.3048,0.81477 0.1277,0.21163 0.64754,0.34586 0.69847,0.33697 0.80707,0.49253 0.48721,0.38964 0.39683,-0.17791 0.33989,-0.53528 0.21115,-0.5036 0.61053,-1.30033 0.40466,-0.76674 0.27445,-1.13583 -0.38677,-0.44855 -0.55618,-0.34149 -0.56799,-0.16909 c 0,0 -0.69284,-0.0239 -0.64337,-0.0476 z m -6.42648,11.66963 0.3819,0.70246 0.4591,0.91801 0.15167,0.20542 -0.53696,0.62801 -0.70859,0.38113 -0.85946,0.1762 -0.30978,-0.11373 0.50474,-1.0748 0.49878,-0.92781 z"
           id="path1369"
           sodipodi:nodetypes="ccccccccccccccccccccccscccccccccccc" />
        <path
           style="fill:#dd0e36;fill-opacity:1;stroke:none;stroke-width:0.135908px;stroke-linecap:butt;stroke-linejoin:miter;stroke-opacity:1"
           d="m 95.757924,146.70719 -0.41622,0.68099 -0.41164,0.92355 -0.72123,1.92172 -0.16923,0.8966 0.05,0.56049 0.70105,0.95805 0.6538,0.91956 0.76059,1.21645 0.44137,0.96765 0.19222,0.95768 -0.0679,0.66516 -0.17268,0.25015 -0.28561,0.16029 -0.58174,-0.0356 -0.51809,-0.33863 -0.62026,-0.53882 -0.76591,-0.91363 -0.72715,-0.77242 -0.59098,-0.50123 -0.26105,-0.16154 -0.5437,0.87004 -0.81453,1.16434 -1.03132,1.37793 -1.12733,1.1089 -1.42775,1.10975 -1.22393,0.85034 -1.17353,0.43346 -0.69706,0.40738 -0.4857,0.5903 -0.44553,1.08283 -0.92184,2.82898 -0.31503,1.10116 -0.0829,0.85487 1.02922,0.42344 0.9577,0.13575 1.43746,0.23976 0.86493,0.0684 0.13721,0.45464 -0.0688,1.37806 -0.73414,1.96133 -0.81162,2.06324 -1.67836,4.44468 -1.24301,2.69334 -1.48165,3.64072 -2.14782,5.31676 -1.76429,4.0386 -2.70693,6.40202 -2.00311,4.54738 -1.61088,3.90468 -1.27384,2.81584 -2.05599,4.93872 -1.33314,3.07475 -1.6973,4.37857 -1.52635,3.04953 -1.63626,4.45022 -2.21043,5.14978 -1.7584,4.41122 -1.91993,4.32018 -1.90346,4.87408 -0.094,0.20913 3.62014,0.65623 3.84629,1.03989 2.7089,1.19026 3.55341,1.94893 3.26035,1.97768 2.86421,2.05898 2.50437,2.17946 0.3958,-0.73533 0.27617,-3.85905 0.3315,-5.52518 0.50953,-5.16914 0.51744,-4.75739 0.57955,-4.77538 0.66457,-5.71052 0.76367,-5.14373 1.04017,-6.09248 0.90544,-4.92547 1.09048,-5.51571 0.70275,-4.10899 1.10827,-4.67171 1.24354,-3.7744 1.60144,-4.82331 2.09624,-4.83387 1.91479,-3.91852 2.20206,-3.84442 1.83428,-3.04868 4.03738,-5.23971 1.235706,4.46578 1.27012,5.19375 0.95938,5.72915 1.17592,7.3482 0.65899,5.28108 0.67484,7.91322 0.21226,6.25414 -0.2352,5.06209 -0.47807,4.35165 -0.25457,3.51543 0.11112,3.78601 0.31161,3.28753 0.44835,2.78585 0.7409,4.62174 0.89534,4.00956 1.07466,4.18175 1.41871,4.9765 1.66263,4.77057 1.58127,5.01921 1.24796,1.27257 1.69499,-1.45128 2.37392,-1.80719 2.01961,-1.17802 2.24195,-1.16959 2.1399,-0.83982 1.8884,-0.66483 -0.20498,-2.07234 -0.71136,-5.08282 -0.66047,-4.64658 -1.12606,-7.35496 -0.77972,-5.60116 -0.84816,-5.22517 -0.75982,-5.17674 -0.65481,-4.43794 -0.66803,-3.98172 -0.7411,-3.18533 -0.84616,-3.39803 -0.86496,-3.08656 -1.14153,-4.64599 -0.61897,-3.44135 -0.37143,-3.13544 0.009,-1.00441 0.0379,-0.91954 -0.60147,-1.43299 -0.59736,-2.15829 -0.61204,-3.92912 -0.69511,-3.89803 -0.51175,-2.67691 -0.46954,-3.49937 -0.24997,-2.4913 0.24841,-0.77049 0.67182,-0.6464 -0.27838,-2.03062 -0.61192,-3.66722 -0.44936,-3.68931 -1.02434,-1.54926 -0.67117,-1.23306 -0.44961,-1.31705 -0.35203,-1.56635 -0.27507,-1.23781 -0.99387,0.13963 -1.85367,0.0776 -0.12865,0.40243 -0.0742,1.65683 -0.20471,3.86631 -0.27161,1.92933 -0.52245,2.26174 -0.22337,0.91055 -0.49944,0.78813 -0.62689,0.79263 -0.54099,0.42548 -0.48022,0.11764 h -0.30966 l -0.76073,1.62967 -0.40252,0.74472 -0.697316,0.84596 0.572826,-1.45691 0.77054,-2.10203 0.36681,-2.06645 0.42171,-2.6661 0.30638,-2.14249 0.33405,-2.92519 0.12655,-2.33942 0.052,-1.22784 -0.32177,-0.55613 -1.30245,-0.67652 -1.047956,-0.94563 -1.35489,-1.50292 -1.13799,-1.74814 -0.8264,-1.65791 -0.33305,-0.55018 z"
           id="path1371"
           sodipodi:nodetypes="cccccccccccccccccccccccccccccccccccccccccccccccccccccccccccccccccccccccccccccccccccccccccccccccccccccccccccccccccccccccccccccccccccccccccccccccccccccccccccccccccccccccccccccccccccc" />
        <path
           style="fill:#dd0e36;fill-opacity:1;stroke:none;stroke-width:0.135908px;stroke-linecap:butt;stroke-linejoin:miter;stroke-opacity:1"
           d="m 103.22802,154.63626 -0.13698,2.21748 -0.29373,3.67741 -0.61901,3.67402 -0.41039,1.62714 -0.20168,1.64467 0.32426,0.19124 0.37066,-0.13393 0.47748,-0.50171 0.51071,-0.74976 0.42103,-1.06494 0.26996,-1.39947 0.26467,-1.35944 0.15435,-1.73191 0.0884,-1.80887 0.0561,-1.62383 0.0457,-1.6745 -0.10114,-0.42524 -0.41018,-0.52479 -0.40245,-0.18971 z"
           id="path1373" />
        <path
           style="fill:#dd0e36;fill-opacity:1;stroke:none;stroke-width:0.135908px;stroke-linecap:butt;stroke-linejoin:miter;stroke-opacity:1"
           d="m 109.06596,154.41987 -0.26372,0.19108 -0.15032,0.47956 -0.008,0.70461 0.22309,1.12533 0.46046,1.47074 0.47953,0.89628 0.35974,0.3523 0.34136,-0.0253 0.0273,-0.79448 -0.16116,-1.32829 -0.18164,-1.23562 -0.26292,-1.42346 -0.28876,-0.38497 -0.36375,-0.11552 z"
           id="path1375" />
        <path
           style="fill:#dd0e36;fill-opacity:1;stroke:none;stroke-width:0.135908px;stroke-linecap:butt;stroke-linejoin:miter;stroke-opacity:1"
           d="m 113.33047,171.50242 -0.67001,0.40459 -0.34701,0.37185 -0.057,0.46858 0.163,0.80363 0.35664,1.16206 0.39526,1.0105 0.37283,0.5772 0.36989,0.14699 0.94443,-0.28917 0.21481,-0.60826 -0.044,-0.78932 -0.38682,-1.05616 -0.45632,-1.11961 -0.43169,-0.95191 z"
           id="path1377"
           sodipodi:nodetypes="cccccccccccccccc" />
        <path
           style="fill:#dd0e36;fill-opacity:1;stroke:none;stroke-width:0.135908px;stroke-linecap:butt;stroke-linejoin:miter;stroke-opacity:1"
           d="m 113.11287,176.6773 0.50532,0.28767 0.51065,-0.12221 0.57063,-0.26833 0.49828,0.0856 0.37163,0.62935 0.27433,1.4913 0.58979,3.86453 0.56131,4.37173 0.28221,1.79386 -0.056,0.76853 -0.38176,0.68186 -0.56728,0.50223 -0.4846,0.1642 -0.50922,-0.18985 -0.29651,-0.3541 -0.46342,-2.49098 -0.6798,-4.4415 -0.49426,-3.16523 -0.41916,-2.11226 -0.1088,-1.14412 z"
           id="path1379" />
        <path
           style="fill:#dd0e36;fill-opacity:1;stroke:none;stroke-width:0.135908px;stroke-linecap:butt;stroke-linejoin:miter;stroke-opacity:1"
           d="m 79.872634,168.6403 -0.53757,0.8422 -0.43262,1.27389 0.0208,0.70667 0.63543,0.5446 -0.98936,0.136 -0.3774,0.0577 0.0243,0.64073 0.53021,0.31844 1.40638,0.45541 0.98854,0.24561 0.74004,0.024 0.81824,-0.23753 0.89993,-0.44345 0.76599,-0.75604 0.42576,-0.71977 0.39552,-1.18292 0.13728,-0.84313 -2.57804,-0.39266 -1.95827,-0.40673 z"
           id="path1381" />
        <path
           style="fill:#dd0e36;fill-opacity:1;stroke:none;stroke-width:0.135908px;stroke-linecap:butt;stroke-linejoin:miter;stroke-opacity:1"
           d="m 79.212784,176.27732 0.52403,-1.12934 0.47908,-0.69491 0.50057,-0.20648 0.95784,-0.0103 0.6344,-0.0172 0.84582,0.0711 0.62899,0.13881 -0.72519,1.42442 -1.08174,2.53911 -0.78314,2.14844 -2.71064,6.30204 -0.90251,2.49321 -0.60391,1.3022 -0.27617,0.2343 -2.21578,-0.89659 -1.22726,-0.35923 0.24027,-1.57803 0.74572,-1.43906 1.17889,-2.58763 1.24527,-2.49438 1.05226,-2.19337 0.91758,-2.12437 z"
           id="path1383" />
        <path
           style="fill:#dd0e36;fill-opacity:1;stroke:none;stroke-width:0.135908px;stroke-linecap:butt;stroke-linejoin:miter;stroke-opacity:1"
           d="m 77.248104,173.50488 0.66336,-0.25802 0.64725,0.19301 0.54651,0.27394 0.44223,0.26097 0.0613,0.47091 -0.98641,1.57147 -1.31194,2.56257 -1.67376,3.33152 -0.90754,1.59213 -1.62567,3.52478 -0.1143,0.453 -0.47025,0.66886 -0.66498,1.1664 -0.34562,0.16755 -0.5892,-0.30954 -0.6878,-0.52296 -0.75728,-0.43488 -0.01,-0.5004 0.64272,-1.13421 1.32362,-2.17501 1.45248,-2.2283 1.24312,-2.28316 1.36061,-2.40723 0.85678,-1.91346 0.56193,-1.20506 z"
           id="path1385" />
        <path
           style="fill:#dd0e36;fill-opacity:1;stroke:none;stroke-width:0.135908px;stroke-linecap:butt;stroke-linejoin:miter;stroke-opacity:1"
           d="m 70.007764,189.97669 0.57003,-0.35544 0.55837,0.26962 0.49475,0.46877 c 0,0 0.43267,0.096 0.52748,0.0809 0.0948,-0.0151 0.66906,-0.43926 0.66906,-0.43926 l 0.52607,0.18254 0.48917,0.50824 -1.56106,3.48769 -3.28555,6.62824 -2.73173,4.40205 -1.53687,2.03107 -1.42552,1.6279 -1.04848,0.97406 -1.14627,0.5792 -0.89442,0.15867 -0.91437,-0.0758 -1.09673,-0.60471 -0.18268,-0.53921 0.26526,-0.80886 0.85709,-1.44847 1.78632,-2.94373 1.91624,-3.11815 2.25995,-3.35779 2.02204,-3.16089 1.48962,-2.33127 0.72924,-0.98745 z"
           id="path1387" />
        <path
           style="fill:#dd0e36;fill-opacity:1;stroke:none;stroke-width:0.135908px;stroke-linecap:butt;stroke-linejoin:miter;stroke-opacity:1"
           d="m 56.188584,211.89192 0.65812,-0.91564 0.50883,-0.25991 0.85637,0.38489 c 0,0 1.08323,0.48419 1.15974,0.51095 0.0765,0.0268 0.96617,0.16558 0.96617,0.16558 l 1.26702,-0.31688 1.50771,-0.98442 1.36933,-1.40879 1.40816,-1.71592 1.68492,-2.47154 2.00133,-3.55402 1.84304,-3.95945 1.29352,-2.54282 0.92892,-2.34677 0.28596,-0.90699 0.32013,-0.56104 0.4406,-0.11401 0.78711,0.21527 0.7396,0.31561 0.27526,0.24753 -0.30514,1.08634 -2.26696,5.21024 -2.0685,4.76591 -1.82309,4.40792 -2.46917,5.40508 -2.26361,5.41326 -3.07252,7.43382 -2.26155,5.30378 -4.01782,9.58468 -3.26039,7.6043 -1.4597,3.49011 -1.82002,-0.005 -3.09582,-0.20256 -3.24587,-0.11485 -2.0499,0.1533 -1.97927,0.15922 -3.12068,0.51259 -1.97827,0.52616 -1.31575,0.33997 -0.43773,-0.23764 0.61644,-1.12039 1.96629,-3.095 2.415,-3.98415 1.96018,-0.10893 2.45707,0.15109 1.33298,0.20597 2.49273,0.48421 1.45102,-3.27281 1.82609,-3.80803 2.00931,-3.78253 2.70666,-5.60073 2.62765,-5.29419 0.71411,-1.59325 0.23555,-1.24618 -1.77134,-0.81 -1.25797,-0.48283 -1.33866,-0.52107 0.60321,-1.49365 1.66666,-3.13944 z"
           id="path1389" />
        <path
           style="fill:#dd0e36;fill-opacity:1;stroke:none;stroke-width:0.135908px;stroke-linecap:butt;stroke-linejoin:miter;stroke-opacity:1"
           d="m 51.604364,219.52389 2.03104,0.57684 1.72197,0.76662 -1.53129,3.31675 -1.84693,3.83887 -2.07024,4.16403 -1.77168,3.6856 -1.66217,3.75367 -1.37962,2.55523 -0.6788,0.90052 -0.85569,-0.15254 -0.85395,-0.31673 -2.11885,-0.13174 -1.92434,0.077 -0.56499,-0.20214 1.0796,-1.78899 2.06243,-3.49862 0.99031,-1.60187 2.14281,-3.70696 1.86904,-3.27797 2.10578,-3.47106 1.52578,-2.67655 z"
           id="path1391" />
        <path
           style="fill:#dd0e36;fill-opacity:1;stroke:none;stroke-width:0.135908px;stroke-linecap:butt;stroke-linejoin:miter;stroke-opacity:1"
           d="m 102.32862,201.50363 0.64262,2.02856 0.31667,3.33836 0.27821,5.92025 -0.26885,3.5502 -0.86374,5.74514 -0.24473,4.2383 0.27004,6.7068 0.76006,6.11717 1.83876,8.26562 2.32701,8.43799 2.91426,7.71469 1.43043,3.39222 -0.0803,0.76572 -1.66711,1.08502 -1.35827,0.94326 -1.76641,0.63191 -1.48906,0.15534 -0.66471,-0.36682 -1.1382,-3.81612 -1.5096,-6.41871 -0.97928,-5.68385 -0.71954,-5.58581 -0.666286,-7.27645 -0.15531,-5.95033 -0.0268,-5.77314 0.504276,-5.75058 0.32078,-5.3366 0.5728,-5.03627 0.61845,-4.24105 0.40667,-4.06317 z"
           id="path1393" />
        <path
           style="fill:#dd0e36;fill-opacity:1;stroke:none;stroke-width:0.135908px;stroke-linecap:butt;stroke-linejoin:miter;stroke-opacity:1"
           d="m 116.1766,191.57531 -0.60126,0.59671 -0.019,0.84851 0.20731,2.47287 0.60794,3.95428 1.27335,5.64045 1.12978,4.6793 1.06453,4.3083 1.11967,4.06294 0.98514,4.21791 0.62646,4.12543 0.63027,4.34819 1.15584,5.74822 0.89994,5.28498 1.4891,8.01252 0.86872,5.01787 0.22382,2.46721 0.35368,1.14352 2.33327,-0.66443 2.99396,-0.46266 1.65368,-0.43025 0.0946,-0.49364 -0.61802,-3.08046 -1.11237,-3.14295 -0.70173,-0.47153 -1.6716,-0.10047 -1.86841,-0.43683 -1.34369,-7.06935 -1.46615,-7.29739 -1.25214,-6.13911 -0.80836,-3.75781 0.51179,-0.28696 0.77202,-0.0591 -1.33122,-4.25728 -2.41524,-7.20671 -2.10763,-6.18063 -1.47638,-5.47373 -1.08628,-4.99765 -0.55028,-3.86178 -0.23454,-0.90898 z"
           id="path1395" />
        <path
           style="fill:#dd0e36;fill-opacity:1;stroke:none;stroke-width:0.135908px;stroke-linecap:butt;stroke-linejoin:miter;stroke-opacity:1"
           d="m 125.2376,225.95469 1.09034,4.71101 2.49211,9.70091 0.84426,3.93891 0.95131,4.65477 2.21946,-0.0378 0.63252,-0.0965 -0.50316,-1.99672 -1.87558,-6.43133 -1.79582,-5.28165 -1.56133,-4.9836 -0.95964,-2.92748 -0.36281,-1.1441 z"
           id="path1397" />
      </g>
      <g
         inkscape:groupmode="layer"
         id="g1405"
         inkscape:label="Pants Cuffs">
        <path
           style="fill:#2e97f1;fill-opacity:1;stroke:none;stroke-width:0.135908px;stroke-linecap:butt;stroke-linejoin:miter;stroke-opacity:1"
           d="m 24.891634,264.34815 0.33709,-1.88878 2.49012,-5.18245 1.55256,-0.96266 5.11935,-1.54858 4.43793,-0.93569 5.45507,-0.30879 5.46449,0.25379 6.44724,1.05562 4.88025,1.81372 4.96781,2.69207 2.99464,2.26225 3.13669,2.59124 2.53439,2.98557 0.88809,1.44078 -0.66048,3.48424 -0.81369,3.51676 -1.15281,0.57587 0.11261,-1.97416 -0.58803,-2.58906 -1.43919,-3.06047 -2.28097,-2.70523 -3.18529,-2.37726 -3.3996,-1.63505 -4.18289,-1.54574 -5.3649,-1.27035 -4.54406,-0.78086 -3.22661,-0.27771 -3.83516,-0.48578 -4.32924,0.40606 -3.68994,0.82443 -2.37112,1.22914 -2.53527,1.70643 -1.98915,2.10383 -0.43324,0.79142 z"
           id="path1401"
           sodipodi:nodetypes="cccccccccccccccccccccccccccccccccccc" />
        <path
           style="fill:#2e97f1;fill-opacity:1;stroke:none;stroke-width:0.135908px;stroke-linecap:butt;stroke-linejoin:miter;stroke-opacity:1"
           d="m 104.85096,271.81864 -0.20233,0.81959 1.85194,3.12706 2.47987,-0.41535 4.05569,-1.19443 2.87971,-1.5031 4.59635,-2.51869 5.58319,-3.05785 3.12253,-1.41173 2.9776,-1.3838 2.62302,-1.06778 2.30403,-0.82436 0.075,-3.30566 -2.42037,-0.21292 -3.65272,0.38511 -3.1404,0.76231 -3.31294,1.11225 -3.07591,1.04835 -1.95318,0.98595 -2.06579,1.16492 -1.5159,1.2469 -1.59996,1.27693 -1.11094,1.19747 -1.99519,1.4387 -2.16265,1.12063 -2.2089,0.80562 z"
           id="path1403" />
      </g>
      <g
         inkscape:groupmode="layer"
         id="g1415"
         inkscape:label="Skin"
         style="display:inline">
        <path
           style="opacity:1;fill:#fd99ac;fill-opacity:1;stroke:none;stroke-width:0.135908px;stroke-linecap:butt;stroke-linejoin:miter;stroke-opacity:1"
           d="m 101.56652,99.491508 -0.31952,-0.823 -0.45978,-0.36181 -4.091366,0.34637 -3.94993,0.55091 -4.10444,0.804552 -4.3532,1.29954 -3.89779,1.2782 -3.52566,1.46834 -4.33908,2.18031 -3.50216,2.31113 -2.91496,2.31335 -2.96981,3.35733 -1.76695,2.90078 -1.2422,3.09173 -0.82838,4.26074 -0.11398,4.18099 0.37731,4.34413 0.96852,3.64635 1.82304,3.94905 1.36462,2.06824 2.04835,2.29173 3.14802,2.15706 3.42187,1.83034 3.54901,1.14504 4.41554,1.1194 4.44372,0.74658 -4.98106,-1.45711 -4.21614,-1.90656 -3.14328,-1.87877 -3.23055,-2.67975 -2.50214,-3.48827 -1.80137,-4.27468 -0.96596,-4.02597 -0.017,-4.57733 0.51339,-4.21477 1.45594,-4.06055 1.89058,-3.0214 2.80849,-3.24275 3.34273,-2.65848 3.32845,-2.13147 3.68543,-1.4664 3.89998,-1.47641 4.26469,-0.85449 4.42736,-0.56119 7.951426,-0.11489 0.22284,-0.30288 -0.0384,-1.50605 z"
           id="path1407"
           sodipodi:nodetypes="ccccccccccccccccccccccccccccccccccccccccccccccccc" />
        <path
           style="opacity:1;fill:#fd99ac;fill-opacity:1;stroke:none;stroke-width:0.135908px;stroke-linecap:butt;stroke-linejoin:miter;stroke-opacity:1"
           d="m 115.14161,89.679098 -0.39827,-0.0845 -0.3075,0.40285 -0.52605,1.42395 -1.08833,2.24381 -0.9129,1.51598 -1.07169,1.78262 -0.61404,0.83318 -0.88322,0.27291 -1.81769,-0.0255 -2.34975,0.0199 -1.62346,0.0728 -0.35012,0.0372 -0.33708,0.37619 -0.13049,0.56206 0.12135,1.286502 0.36513,3.6256 0.1337,2.28967 2.49312,0.37763 2.23024,0.24672 2.8535,0.34149 2.1863,0.29087 2.06111,0.34691 1.04525,0.12201 0.90493,-0.24347 0.403,-0.48534 -0.24269,-1.1014 -0.45389,-2.33768 -0.53987,-2.43259 -0.32577,-1.611422 -0.0239,-0.76504 -1.00938,-0.16959 v -0.93222 l 0.29686,-1.46993 0.33382,-1.25701 0.45358,-1.52866 0.46917,-1.07962 0.34552,-0.89401 -0.0251,-0.56977 -0.29073,-0.53963 -0.83412,-0.69879 z"
           id="path1409" />
        <path
           style="opacity:1;fill:#fd99ac;fill-opacity:1;stroke:none;stroke-width:0.135908px;stroke-linecap:butt;stroke-linejoin:miter;stroke-opacity:1"
           d="m 119.07789,99.817858 -1.05288,-0.27603 -0.45753,0.13953 -0.0595,1.022552 0.35692,1.59498 0.98343,2.78824 2.67936,0.72918 2.61057,0.74226 2.35338,0.89239 2.13033,1.033 1.52016,1.05294 0.75372,0.76695 0.61055,0.21812 0.5675,-0.13649 0.53177,-0.5556 0.58521,-0.56361 0.96846,-0.90174 0.99868,-0.55351 0.77723,-0.8311 0.60894,-0.75633 -0.93201,-0.78386 -1.73735,-0.91312 -2.34247,-1.03646 -1.61922,-0.58805 -2.57655,-0.96652 -1.8099,-0.52626 -1.91461,-0.53633 -2.31693,-0.57666 z"
           id="path1411" />
        <path
           style="opacity:1;fill:#fd99ac;fill-opacity:1;stroke:none;stroke-width:0.135908px;stroke-linecap:butt;stroke-linejoin:miter;stroke-opacity:1"
           d="m 88.229824,158.00904 -0.67123,-0.78234 -0.43757,-1.19769 -0.0954,-1.24972 -0.0416,-2.05261 0.19572,-1.37666 0.3149,-0.75851 0.71061,-0.65033 0.77409,-0.39909 0.79839,0.17078 1.09699,0.3877 1.00392,0.72013 1.71904,1.57404 1.29787,1.43006 0.90082,1.23368 0.3325,0.59287 -0.0554,0.39089 -0.82847,0.20508 -0.41071,0.30423 -0.59077,-0.53001 -0.76829,-0.94863 -0.91005,-0.9125 -0.55424,-0.24935 -0.5831,0.12137 -0.23067,0.50586 -0.54704,0.88972 -1.11486,1.35089 -0.91261,0.84426 z"
           id="path1413" />
      </g>
      <g
         inkscape:groupmode="layer"
         id="g1419"
         inkscape:label="Right Thumbnail"
         style="display:inline">
        <path
           style="fill:#2e97f1;fill-opacity:1;stroke:none;stroke-width:0.135908px;stroke-linecap:butt;stroke-linejoin:miter;stroke-opacity:1"
           d="m 95.169144,156.92021 0.31377,-0.2225 0.25859,-0.11632 0.47668,-0.13197 0.23189,0.19016 0.0794,0.17767 -0.0422,0.27703 -0.13325,0.30497 -0.17244,0.12419 -0.21953,0.006 -0.29498,-0.12679 -0.29693,-0.20589 z"
           id="path1417" />
      </g>
      <g
         inkscape:groupmode="layer"
         id="g1437"
         inkscape:label="Shirt Circles"
         style="display:inline;opacity:1">
        <path
           id="path1421"
           style="opacity:1;fill:#2e97f1;fill-opacity:1;stroke:none;stroke-width:0.342443"
           d="m 105.19134,110.58875 a 1.8496655,1.9822202 0 0 0 -1.84299,1.98209 1.8496655,1.9822202 0 0 0 1.84963,1.98235 1.8496655,1.9822202 0 0 0 1.84962,-1.98235 1.8496655,1.9822202 0 0 0 -1.84962,-1.98209 1.8496655,1.9822202 0 0 0 -0.007,0 z m 0.0157,1.33042 a 0.66761647,0.6651278 0 0 1 0.009,0 0.66761647,0.6651278 0 0 1 0.66759,0.66521 0.66761647,0.6651278 0 0 1 -0.66759,0.66494 0.66761647,0.6651278 0 0 1 -0.66786,-0.66494 0.66761647,0.6651278 0 0 1 0.65857,-0.66521 z" />
        <path
           id="path1423"
           style="opacity:1;fill:#2e97f1;fill-opacity:1;stroke:none;stroke-width:0.34147"
           d="m 110.77845,111.47614 a 2.3575954,2.4941505 0 0 0 -2.3577,2.49413 2.3575954,2.4941505 0 0 0 2.3577,2.49413 2.3575954,2.4941505 0 0 0 2.35742,-2.49413 2.3575954,2.4941505 0 0 0 -2.35742,-2.49413 z m 0.0167,1.26379 a 1.1758105,1.1759949 0 0 1 1.17593,1.17592 1.1758105,1.1759949 0 0 1 -1.17593,1.17593 1.1758105,1.1759949 0 0 1 -1.17566,-1.17593 1.1758105,1.1759949 0 0 1 1.17566,-1.17592 z" />
        <path
           id="path1425"
           style="opacity:1;fill:#2e97f1;fill-opacity:1;stroke:none;stroke-width:0.359002"
           d="m 106.08218,116.33937 a 3.1027553,3.4853533 20.289503 0 0 -3.12643,2.36566 3.1027553,3.4853533 20.289503 0 0 1.70178,4.34508 3.1027553,3.4853533 20.289503 0 0 4.11866,-2.19311 3.1027553,3.4853533 20.289503 0 0 -1.70151,-4.34509 3.1027553,3.4853533 20.289503 0 0 -0.9925,-0.17254 z m -0.11176,1.63144 a 1.7105695,1.8058119 26.878711 0 1 0.74272,0.17599 1.7105695,1.8058119 26.878711 0 1 0.70954,2.38423 1.7105695,1.8058119 26.878711 0 1 -2.3423,0.83722 1.7105695,1.8058119 26.878711 0 1 -0.70927,-2.38397 1.7105695,1.8058119 26.878711 0 1 1.59931,-1.01347 z" />
        <path
           id="path1427"
           style="opacity:1;fill:#2e97f1;fill-opacity:1;stroke:none;stroke-width:0.358216"
           d="m 106.07926,124.52546 a 2.5426714,2.7875429 0 0 0 -2.54271,2.78745 2.5426714,2.7875429 0 0 0 2.54271,2.78771 2.5426714,2.7875429 0 0 0 2.5427,-2.78771 2.5426714,2.7875429 0 0 0 -2.5427,-2.78745 z m -0.0167,1.65665 a 1.0273234,1.0769272 0 0 1 1.02728,1.07692 1.0273234,1.0769272 0 0 1 -1.02728,1.07691 1.0273234,1.0769272 0 0 1 -1.02727,-1.07691 1.0273234,1.0769272 0 0 1 1.02727,-1.07692 z" />
        <path
           id="path1429"
           style="opacity:1;fill:#2e97f1;fill-opacity:1;stroke:none;stroke-width:0.358578"
           d="m 103.94348,125.98568 a 4.3108435,4.6889653 26.537142 0 0 -4.147066,2.69003 4.3108435,4.6889653 26.537142 0 0 1.761766,6.12092 4.3108435,4.6889653 26.537142 0 0 5.95156,-2.26903 4.3108435,4.6889653 26.537142 0 0 -1.7615,-6.12092 4.3108435,4.6889653 26.537142 0 0 -1.80476,-0.421 z m -0.0547,1.14779 a 3.1914326,3.4140293 42.897167 0 1 1.34501,0.30208 3.1914326,3.4140293 42.897167 0 1 1.32325,4.39286 3.1914326,3.4140293 42.897167 0 1 -4.47011,1.62851 3.1914326,3.4140293 42.897167 0 1 -1.32325,-4.39286 3.1914326,3.4140293 42.897167 0 1 3.1251,-1.93059 z" />
        <path
           id="path1431"
           style="opacity:1;fill:#2e97f1;fill-opacity:1;stroke:none;stroke-width:0.357537"
           d="m 98.873194,134.51818 a 1.7847418,2.0010677 0 0 0 -1.78459,2.00093 1.7847418,2.0010677 0 0 0 1.78459,2.0012 1.7847418,2.0010677 0 0 0 1.784856,-2.0012 1.7847418,2.0010677 0 0 0 -1.784856,-2.00093 z m -0.0167,1.29537 a 0.64792907,0.66321625 0 0 1 5.5e-4,0 0.64792907,0.66321625 0 0 1 0.64795,0.66309 0.64792907,0.66321625 0 0 1 -0.64795,0.66335 0.64792907,0.66321625 0 0 1 -0.64796,-0.66335 0.64792907,0.66321625 0 0 1 0.64742,-0.66309 z" />
        <path
           id="path1433"
           style="opacity:1;fill:#2e97f1;fill-opacity:1;stroke:none;stroke-width:0.35261"
           d="m 105.05463,136.32586 a 2.6684441,2.9538288 25.341958 0 0 -2.6733,1.93139 2.6684441,2.9538288 25.341958 0 0 1.37634,3.70828 2.6684441,2.9538288 25.341958 0 0 3.59652,-1.76416 2.6684441,2.9538288 25.341958 0 0 -1.37633,-3.70827 2.6684441,2.9538288 25.341958 0 0 -0.92323,-0.16724 z m -0.10458,1.34104 a 1.4301081,1.5721131 28.07679 0 1 0.50435,0.0889 1.4301081,1.5721131 28.07679 0 1 0.73926,1.96881 1.4301081,1.5721131 28.07679 0 1 -1.93218,0.93676 1.4301081,1.5721131 28.07679 0 1 -0.73927,-1.96907 1.4301081,1.5721131 28.07679 0 1 1.42784,-1.02542 z" />
        <path
           id="path1435"
           style="opacity:1;fill:#2e97f1;fill-opacity:1;stroke:none;stroke-width:0.358112"
           d="m 101.46315,142.02207 a 2.1470505,2.2544768 0 0 0 -2.138956,2.2547 2.1470505,2.2544768 0 0 0 2.146916,2.25443 2.1470505,2.2544768 0 0 0 2.1472,-2.25443 2.1470505,2.2544768 0 0 0 -2.1472,-2.2547 2.1470505,2.2544768 0 0 0 -0.008,0 z m 0.0117,1.21893 a 0.84508799,0.87521195 0 0 1 0.84518,0.87517 0.84508799,0.87521195 0 0 1 -0.84518,0.87518 0.84508799,0.87521195 0 0 1 -0.84518,-0.87518 0.84508799,0.87521195 0 0 1 0.84518,-0.87517 z" />
      </g>
    </g>
    <g
       inkscape:groupmode="layer"
       id="g1589"
       inkscape:label="Head"
       style="display:inline">
      <g
         inkscape:groupmode="layer"
         id="g1465"
         inkscape:label="Back Hair"
         style="display:inline">
        <g
           inkscape:groupmode="layer"
           id="g1443"
           inkscape:label="Black"
           style="display:inline">
          <path
             id="path1441"
             style="fill:#000000;fill-opacity:1;stroke:none;stroke-width:0.135908px;stroke-linecap:butt;stroke-linejoin:miter;stroke-opacity:1"
             d="m 157.13673,65.235708 -67.031216,7.36852 -1.37607,7.32498 -0.69149,4.66097 -0.40852,2.87106 -0.0329,1.32139 1.93218,0.85447 2.30779,0.36844 1.78804,-0.0462 5.16107,-1.33015 3.124296,-0.72281 1.99907,2.71658 3.84047,1.07001 2.64676,0.15422 2.09305,0.80669 1.19264,-2.01739 1.37926,-4.81704 2.97884,3.02741 -1.33599,5.68824 0.57336,0.26438 1.96085,0.54921 3.43009,0.7544 3.58193,0.17174 4.01328,0.48258 2.36512,0.0754 3.34489,0.35729 2.36459,0.0664 1.60303,-0.01 1.75964,0.70051 1.83105,0.23279 3.34037,-0.27394 1.80662,-0.21527 2.51139,-0.71618 2.20878,-0.65724 2.37866,-0.81943 1.63674,-0.64052 1.89926,-1.07479 -1.86051,-1.21628 2.26983,-0.68644 2.69905,-0.9349 2.83895,-1.09603 2.75851,-1.12867 1.46049,-1.12523 -1.47349,-1.20884 1.20087,-0.50116 2.12065,-1.25291 -3.12377,-1.3251 -2.12754,-1.29352 -1.32458,-1.19823 -1.09762,-1.3758 -1.21787,-1.78645 -1.00471,-1.75964 -1.15867,-2.4952 -0.30978,-2.17081 -0.17227,-1.02409 0.0605,-2.74419 z" />
        </g>
        <g
           inkscape:groupmode="layer"
           id="g1463"
           inkscape:label="Blue"
           style="display:inline">
          <path
             style="display:inline;fill:#2e97f1;fill-opacity:1;stroke:none;stroke-width:0.135908px;stroke-linecap:butt;stroke-linejoin:miter;stroke-opacity:1"
             d="m 90.873134,86.692898 -0.55613,-1.34359 -0.008,-5.10457 0.77218,-6.04693 0.7955,-4.94035 0.60024,-1.77751 0.81958,-2.2516 1.93745,0.47733 0.0822,2.61672 -0.50556,4.72184 -0.53874,6.89425 -0.39057,4.23105 -0.825,2.29553 -1.26425,0.39742 -0.54339,0.16594 -0.18431,-0.0617 z"
             id="path1445"
             sodipodi:nodetypes="ccccccccccccccccc" />
          <path
             id="path1447"
             style="display:inline;fill:#2e97f1;fill-opacity:1;stroke:none;stroke-width:0.135908px;stroke-linecap:butt;stroke-linejoin:miter;stroke-opacity:1"
             d="m 106.36222,72.208978 -1.09151,5.8791 0.0892,2.73807 0.37348,3.0874 0.39206,2.4798 0.61902,2.28947 0.89323,0.61663 2.20878,1.20088 0.55451,0.22298 0.64827,-0.0509 0.73046,-0.15938 1.12867,-0.31163 0.37083,-0.45418 0.12423,-0.8181 0.23598,-5.10426 -1.33015,-0.49878 -0.30181,-6.015 z"
             sodipodi:nodetypes="cccccccccccccccccc" />
          <path
             style="display:inline;fill:#2e97f1;fill-opacity:1;stroke:none;stroke-width:0.135908px;stroke-linecap:butt;stroke-linejoin:miter;stroke-opacity:1"
             d="m 118.93964,87.815348 9.28809,-0.63985 1.51652,3.89238 0.36849,1.52607 0.16544,1.87648 -0.0679,0.79503 -0.46573,0.28913 -2.38769,-0.0786 -3.27099,-0.46309 -2.32132,-0.52692 -2.09371,-0.67244 -1.2086,-0.67111 -0.34714,-0.24209 z"
             id="path1449"
             sodipodi:nodetypes="cccccccccccccc" />
          <path
             style="display:inline;fill:#2e97f1;fill-opacity:1;stroke:none;stroke-width:0.135908px;stroke-linecap:butt;stroke-linejoin:miter;stroke-opacity:1"
             d="m 130.79002,85.061228 4.57751,-1.24998 0.30807,4.89128 0.57842,2.4521 0.9157,3.34108 0.29367,0.79373 -0.25784,0.43081 -1.94386,0.0671 h -1.06202 l -0.94302,-0.0965 -0.35372,-0.24818 -0.79012,-0.80834 -0.64559,-1.19393 -0.51328,-1.58283 -0.14015,-0.90117 z"
             id="path1451"
             sodipodi:nodetypes="cccccccccccccccc" />
          <path
             style="display:inline;fill:#2e97f1;fill-opacity:1;stroke:none;stroke-width:0.135908px;stroke-linecap:butt;stroke-linejoin:miter;stroke-opacity:1"
             d="m 136.52628,82.107038 1.83178,6.85829 0.86711,2.90277 1.83219,3.33975 1.22459,1.40514 0.59057,0.35631 0.81048,0.0936 0.88535,-0.13969 0.96734,-0.49849 0.19533,-0.32838 -0.0898,-0.44028 -0.49107,-0.61304 -0.72342,-1.05286 -1.1085,-2.02685 -0.80236,-2.38312 -0.49315,-1.95476 -0.22393,-1.44144 -0.12531,-0.51683 -0.47609,-4.67174 z"
             id="path1453"
             sodipodi:nodetypes="cccccccccccccccccccc" />
          <path
             style="display:inline;fill:#2e97f1;fill-opacity:1;stroke:none;stroke-width:0.135908px;stroke-linecap:butt;stroke-linejoin:miter;stroke-opacity:1"
             d="m 141.37572,82.098108 1.59327,4.30667 1.19777,3.60278 1.40691,3.01846 1.21018,1.74585 1.20996,1.41176 0.85964,0.007 1.0945,-0.33017 -0.41385,-0.73733 -1.14389,-1.36911 -0.96323,-1.34307 -0.98048,-1.71652 -0.9352,-1.77205 -0.68928,-1.16906 -0.79005,-1.77754 -0.50845,-1.32578 -0.3143,-0.69274 -1.34815,-3.33257 z"
             id="path1455"
             sodipodi:nodetypes="ccccccccccccccccccc" />
          <path
             style="display:inline;fill:#2e97f1;fill-opacity:1;stroke:none;stroke-width:0.135908px;stroke-linecap:butt;stroke-linejoin:miter;stroke-opacity:1"
             d="m 142.79344,81.327998 1.27805,2.78378 0.6529,1.32367 1.65409,2.61372 1.49534,1.87046 2.67925,2.97507 2.41412,2.29354 0.2806,0.10388 0.52355,-0.17313 1.77079,-0.9612 0.11287,-0.24457 -0.24758,-0.45565 -0.55209,-0.59777 -1.38627,-1.21205 -1.7494,-1.7931 -1.96774,-2.32933 -1.36186,-1.73666 -1.02199,-1.69393 -0.4813,-1.20735 -0.49822,-1.42315 -0.86489,-2.00131 z"
             id="path1457"
             sodipodi:nodetypes="cccccccccccccccccccccc" />
          <path
             style="display:inline;fill:#2e97f1;fill-opacity:1;stroke:none;stroke-width:0.135908px;stroke-linecap:butt;stroke-linejoin:miter;stroke-opacity:1"
             d="m 146.65384,78.500798 1.29454,2.95382 0.43438,0.72691 1.21207,1.99612 1.51067,2.16754 1.53,1.72909 1.51885,1.50762 1.53988,1.30918 0.71954,0.43997 0.55207,0.0459 1.49576,-0.41227 4.4014,-1.43739 3.06918,-1.18912 0.29969,-0.19035 0.11185,-0.39808 -0.21209,-0.29569 -0.44276,-0.20463 -1.36293,-0.20935 -1.56179,-0.41149 -1.33837,-0.61915 -1.85547,-1.02341 -1.08131,-0.91217 -1.19907,-1.44779 -1.08395,-1.69343 -0.70808,-1.68432 -0.44585,-1.58286 -0.17954,-1.29346 -0.18196,-0.8487 -0.24292,-0.87819 -0.64305,-3.36283 z"
             id="path1459"
             sodipodi:nodetypes="ccccccccccccccccccccccccccccccc" />
          <path
             style="display:inline;fill:#2e97f1;fill-opacity:1;stroke:none;stroke-width:0.135908px;stroke-linecap:butt;stroke-linejoin:miter;stroke-opacity:1"
             d="m 156.99659,64.695248 0.15306,7.29238 0.20554,1.21668 0.59535,1.88284 1.06091,2.27351 1.56574,2.75864 1.82283,2.1887 1.80298,1.44545 1.1939,0.71384 0.84984,0.35801 0.4277,-0.0478 0.61419,-0.28741 2.8e-4,-0.24137 -0.99894,-0.6192 -2.08259,-1.62555 -1.39333,-1.52575 -1.39093,-2.16141 -1.23373,-2.30105 -0.88864,-2.1977 -0.32541,-1.39577 -0.0454,-1.03309 -0.0441,-1.15556 -0.18312,-4.24512 z"
             id="path1461"
             sodipodi:nodetypes="cccccccccccccccccccccccc" />
        </g>
      </g>
      <g
         inkscape:groupmode="layer"
         id="g1475"
         inkscape:label="Face"
         style="display:inline">
        <g
           inkscape:groupmode="layer"
           id="g1469"
           inkscape:label="Black">
          <path
             style="fill:#000000;stroke:none;stroke-width:0.135908px;stroke-linecap:butt;stroke-linejoin:miter;stroke-opacity:1"
             d="m 103.27581,72.582468 2.11391,4.33979 1.17585,2.01533 1.51683,2.38312 1.98065,2.74558 1.94385,2.77349 1.86185,1.90455 1.63734,1.24993 1.82705,1.4473 1.44345,0.65515 1.39995,0.21899 2.6915,-0.15366 2.40542,-0.49799 3.17758,-1.08017 3.00531,-1.04517 4.38537,-1.97527 4.68855,-2.30134 2.11582,-1.19623 2.68135,-1.71864 4.14717,-2.99032 3.60862,-3.0452 2.09982,-1.89003 1.95217,-2.91692 2.18673,-2.06393 1.40331,-2.85748 1.62191,-0.90386 -0.0901,-2.15835 0.83101,-2.33485 0.79988,-2.03181 0.55574,-2.10996 0.24761,-2.34538 0.094,-1.75947 -5.21192,-11.50869 -13.43531,-12.57907 -18.89025,-7.59853 -17.4673,5.07224 -7.6739,33.79139 z"
             id="path1467" />
        </g>
        <g
           inkscape:groupmode="layer"
           id="g1473"
           inkscape:label="Skin"
           style="display:inline">
          <path
             style="fill:#fd99ac;fill-opacity:1;stroke:none;stroke-width:0.135908px;stroke-linecap:butt;stroke-linejoin:miter;stroke-opacity:1"
             d="m 103.16412,68.795848 1.92397,4.92424 1.60922,2.84504 1.91654,2.92187 2.83606,4.32031 2.09257,2.83193 1.90609,1.98352 1.2157,1.11485 1.60139,1.13214 1.55535,0.47414 1.11245,-0.0218 2.15503,-0.31078 2.4756,-0.63092 2.55654,-0.82493 2.6226,-1.04567 2.49609,-1.04101 4.08039,-2.02412 3.59561,-1.96804 2.9286,-1.74135 3.78969,-2.63016 3.32161,-2.50189 3.04683,-2.48929 2.40284,-2.45678 1.45996,-1.76212 1.84834,-3.38844 2.1175,-4.74806 0.64647,-2.58987 0.4921,-3.35111 0.21084,-2.42846 -0.0161,-5.25512 -3.58806,-10.10265 -16.38415,-11.104 -17.92164,-5.84504 -17.27025,12.70076 -8.006886,20.31187 z"
             id="path1471" />
        </g>
      </g>
      <g
         inkscape:groupmode="layer"
         id="g1485"
         inkscape:label="Front Hair"
         style="display:inline">
        <g
           inkscape:groupmode="layer"
           id="g1479"
           inkscape:label="Black"
           style="display:inline">
          <path
             id="path1477"
             style="fill:#000000;fill-opacity:1;stroke:none;stroke-width:0.135908px;stroke-linecap:butt;stroke-linejoin:miter;stroke-opacity:1"
             d="m 122.26695,16.337638 -3.59679,0.3188 -3.41683,0.50488 -2.595,0.45445 -3.0574,1.10239 -3.08953,1.22796 -2.84186,1.47933 -2.41238,1.65266 -2.463866,1.74743 -2.28628,1.90989 -2.34309,1.92103 -2.59739,2.48909 -2.60774,2.44157 -2.56899,2.77577 -2.09384,2.39591 -2.4774,3.03803 -2.55466,3.41735 -1.96855,2.80285 -2.58916,3.78951 -1.30652,2.08083 -1.83529,2.90955 -1.5887,2.40016 -1.32139,2.60774 1.09019,1.63595 1.9412,2.54058 2.17507,2.66933 1.81459,2.11003 1.61285,1.67629 0.81863,0.80748 0.2535,-1.12655 0.23121,-1.39837 1.17115,1.28078 0.51788,1.04294 1.39041,2.44608 2.30168,3.609 1.70283,2.67411 1.88812,2.61066 1.65798,2.27779 1.59106,1.93051 0.0635,-1.89016 0.12582,-2.25337 0.54364,-4.35172 1.02356,-6.31125 0.63017,-4.76263 0.44462,-1.77079 0.2097,-0.59805 0.14387,-0.0212 0.0592,1.35882 -0.3273,4.89058 -0.80881,6.63111 -0.65512,4.69919 -0.24766,2.36167 -0.0876,0.7397 1.32693,1.47624 1.86343,2.11269 1.89715,1.93271 1.69089,1.41801 2.087456,1.9789 2.22789,1.3344 2.86682,1.2752 2.77391,0.87942 2.11852,0.457102 1.64312,0.17865 -1.5157,-2.079772 -1.79017,-2.71366 -1.27175,-2.9138 -0.98215,-2.96344 -0.61185,-2.97087 -0.65088,-4.6607 -0.348,-3.6252 -0.13484,-3.67536 0.0236,-2.24461 0.32039,-3.22862 0.44038,-3.08687 0.45152,-1.98156 0.35331,-1.30865 0.0969,2.81028 0.38569,3.26844 0.60071,4.08707 0.64768,3.46115 0.39048,2.50979 0.43665,2.51298 0.73794,3.19384 0.63522,2.73675 0.55849,2.45007 0.57629,1.83343 0.57761,1.8568 0.45444,1.28635 0.67291,1.6601 0.36021,0.83881 0.41277,-0.007 0.0313,-0.42286 -1.07506,-3.16624 -0.71405,-2.75825 -0.64158,-2.72215 -0.79103,-4.48895 -0.6376,-3.84764 -0.50382,-3.96311 -0.19404,-4.19325 -0.16112,-4.29651 -0.0276,-5.16292 0.38012,-4.96544 0.76501,-5.21521 0.74591,-3.74863 0.90172,-3.67961 0.79925,-2.86921 1.10585,-2.56739 1.5088,-2.79011 1.88174,-2.85407 1.93484,-2.99503 2.21435,-2.61597 1.68187,-1.76707 1.29086,-1.24229 0.88553,-0.59593 0.59513,-0.19828 0.0871,0.35835 -0.67954,1.70549 -0.74749,2.436 -0.54576,1.71849 -0.48205,1.79575 -0.52611,1.88546 0.83297,0.48576 0.74643,0.10406 0.52983,-0.0138 0.91791,-1.19425 1.23034,-1.42942 0.98162,-1.34183 1.01507,-1.10054 -0.0483,1.38297 -0.10061,2.15649 -0.10299,1.89209 -0.001,1.16505 2.31098,0.73608 2.21461,0.74882 0.52957,-2.00544 0.53275,-1.74372 0.61902,-1.47827 0.28349,1.41669 0.39286,2.36194 0.42259,2.45511 2.61757,1.14301 2.71047,0.98958 2.44183,1.14991 h 0.47197 l 0.46187,-0.52319 0.36287,-1.75725 0.63256,-2.89708 0.18156,0.37481 0.13325,2.32292 0.10247,2.39379 0.0295,0.88845 0.35941,0.56062 1.41483,0.75758 2.45697,1.24229 1.52127,0.86509 0.74325,0.17015 0.70768,-2.30726 0.77855,-2.2823 0.0993,2.69613 0.22987,2.62712 0.1383,1.15177 1.66169,0.73608 2.11667,1.28927 2.41821,1.35935 1.6325,1.00392 2.06888,1.24176 -0.10034,-4.15264 -0.10007,-3.47416 -0.42286,-3.23685 -0.85606,-3.27162 -1.13982,-3.31754 -1.7339,-3.51504 -1.56613,-2.43759 -2.03623,-2.44051 -1.55048,-1.70788 -2.78505,-2.07127 -2.46042,-1.67391 -3.2188,-1.52153 -2.94725,-1.15602 -2.68021,-0.89561 -3.27056,-0.7682 -2.05428,-0.14096 -1.68797,0.13565 -2.00492,-0.66999 -3.31674,-0.70821 -3.46646,-0.57947 z"
             sodipodi:nodetypes="ccccccccccccccccccccccccccccccccccccccccccccccccccccccccccccccccccccccccccccccccccccccccccccccccccccccccccccccccccccccccccccccccccccccccccccccccccccccccccccccccccccccccccccccccccccccccccc" />
        </g>
        <g
           inkscape:groupmode="layer"
           id="g1483"
           inkscape:label="Blue"
           style="display:inline">
          <path
             style="display:inline;fill:#2e97f1;fill-opacity:1;stroke:none;stroke-width:0.135908px;stroke-linecap:butt;stroke-linejoin:miter;stroke-opacity:1"
             d="m 72.280504,60.496498 2.54183,-4.09953 3.01362,-4.82913 2.85988,-4.2101 3.24453,-4.59328 3.29975,-4.19818 3.41305,-4.01176 3.7349,-3.8569 3.18179,-3.06333 3.475946,-2.85519 3.27685,-2.38489 1.88339,-1.01476 2.08265,-0.98963 2.80542,-1.09052 2.54707,-0.63136 2.97915,-0.66817 2.90805,-0.44366 2.56398,-0.0877 3.21936,-0.0228 2.81165,0.27284 3.70005,0.89654 2.7464,0.6992 2.84496,0.26287 2.80317,0.64142 3.26643,1.02319 2.6834,1.34508 2.13571,1.10933 2.39807,1.56877 2.47548,1.85182 1.95019,1.83604 2.09093,2.32845 1.67784,2.77959 1.39758,2.55363 1.36958,2.95005 1.00191,3.47391 0.53173,3.64491 0.25476,2.5911 -0.17717,0.93616 -0.40329,0.33575 -0.48213,-0.10402 -1.52525,-0.87537 -2.90157,-1.83926 -0.87647,-0.81926 -0.0168,-0.96372 -0.37541,-2.21753 -0.48721,-1.91896 -0.67092,-1.75314 -0.54013,-0.43461 -0.32456,-0.024 -0.25243,0.24115 -0.29564,0.36288 -0.24762,1.02299 -0.65035,1.79986 -0.40359,0.84469 -0.28334,0.38737 -0.36502,0.15092 -0.63138,-0.0686 -0.80153,-0.31653 -1.1487,-0.6938 -1.12742,-0.58918 -0.35923,-0.36154 -0.28545,-0.39866 -0.20853,-0.47976 -0.0335,-0.79027 -0.0559,-1.43624 -0.0906,-1.34184 -0.10922,-1.20831 -0.16403,-0.60235 -0.1782,-0.36799 -0.29561,-0.12383 -0.50692,0.0792 -0.3604,0.11435 -0.0394,0.11954 -0.0367,0.77519 -0.23554,0.9631 -0.3205,1.05565 -0.16395,0.8624 -0.2452,0.48081 -0.39172,0.31428 -1.15485,-0.48071 -1.5445,-0.62657 -1.31929,-0.47033 -0.97812,-0.20443 -0.75234,-0.42724 -0.63376,-0.77815 -0.3591,-0.83466 -0.15508,-0.9441 -0.20464,-1.04127 -0.33083,-1.33577 -0.44618,-1.11271 -0.4273,-0.54221 -0.46735,-0.17481 -0.42417,0.0264 -0.24017,0.19517 -0.42526,0.89646 -0.76227,1.48772 -0.52386,1.12856 -0.47319,0.45546 -0.57331,0.32892 -0.4914,-0.006 -0.46983,-0.26788 -0.24424,-0.41914 -0.14847,-0.59469 -0.14892,-1.57024 -0.2237,-2.03005 -0.0597,-1.99062 -0.17104,-1.11404 -0.99766,1.01675 -0.72605,0.93492 -0.82845,1.04031 -0.83947,0.99734 -0.88809,0.93584 -0.57533,0.58538 -0.25486,0.01 -0.058,-0.27297 0.002,-0.67421 0.42789,-2.19209 0.67107,-2.17492 0.70714,-2.1569 0.37314,-1.35329 0.16973,-0.78237 -1.25858,-0.99475 -1.61257,0.83378 -1.76551,1.30835 -1.74076,1.31713 -1.62252,1.53507 -1.44298,1.67344 -1.35443,1.78061 -2.25818,2.91474 -1.20359,2.03674 -1.12838,1.99032 -1.60294,3.3819 -1.60735,4.0013 -1.86333,4.9458 -1.63482,4.24344 -1.14816,4.04056 -1.26381,5.63172 -0.53276,2.73806 -0.69855,4.36958 -0.26455,4.9287 0.2434,4.5159 0.24408,2.44813 0.3694,2.52768 0.49611,2.09949 0.61708,1.86565 0.93425,2.11424 1.13771,1.73883 0.77023,1.26722 0.89325,1.09943 0.70127,0.59999 -0.0482,0.39273 -1.74074,-0.43515 -1.51973,-0.51178 -1.9959,-1.18725 -1.83136,-1.53749 -1.795116,-1.67237 -1.68243,-1.92963 -1.87428,-2.53516 -0.0236,-4.37408 0.28894,-3.71455 0.37163,-4.54605 0.49561,-5.2035 0.62642,-4.42355 0.60038,-3.87927 0.82609,-4.19652 0.75652,-4.94184 0.805166,-4.90263 0.85796,-3.78931 -1.502506,1.81541 -0.8693,1.44404 -1.98775,4.64946 -1.29309,3.50307 -1.21605,3.92388 -1.12212,3.95717 -1.00612,3.37285 -1.0689,4.9008 -0.94184,4.29213 -0.38765,3.07005 -1.55421,-2.45965 -3.0244,-5.98127 -1.12838,-2.35056 -0.0612,-0.48892 0.23578,-0.54326 2.38578,-5.22905 3.29066,-7.02062 2.78771,-5.19371 2.28994,-4.20123 2.41184,-4.42125 1.82745,-3.32656 1.182996,-2.25666 -0.008,-0.21745 -0.288436,-0.17646 -0.23001,0.13008 -1.81072,1.88455 -3.59391,4.27375 -3.41707,4.79535 -4.0444,5.84555 -3.18982,5.36759 -2.75709,4.82848 -3.04187,6.10974 -0.19416,0.47799 -0.38988,-0.0629 -0.65339,-0.49542 -1.18705,-1.3754 -1.72519,-2.57028 -1.21822,-2.51108 z"
             id="path1481"
             sodipodi:nodetypes="ccccccccccccccccccccccccccccccccccccccccccccccccccccccccccccccccccccccccccccccccccccccccccccccccccccccccccccccccccccccccccccccccccccccccccccccccccccccccccccccccccccccccccccccccccccccccccccccccccccccccccccccc" />
        </g>
      </g>
      <g
         inkscape:groupmode="layer"
         id="g1509"
         inkscape:label="Freckles"
         style="display:inline">
        <ellipse
           style="fill:#000000;fill-opacity:1;stroke:none;stroke-width:0.359569"
           id="ellipse1487"
           cx="115.18565"
           cy="64.495903"
           rx="0.49832743"
           ry="0.40267062" />
        <ellipse
           style="fill:#000000;fill-opacity:1;stroke:none;stroke-width:0.359569"
           id="ellipse1489"
           cx="112.36461"
           cy="67.531044"
           rx="0.43620834"
           ry="0.29454878" />
        <ellipse
           style="fill:#000000;fill-opacity:1;stroke:none;stroke-width:0.359569"
           id="ellipse1491"
           cx="117.68002"
           cy="69.661888"
           rx="0.32656965"
           ry="0.39639813" />
        <ellipse
           style="fill:#000000;fill-opacity:1;stroke:none;stroke-width:0.359569"
           id="ellipse1493"
           cx="119.29594"
           cy="65.059486"
           rx="0.39391178"
           ry="0.41589993" />
        <ellipse
           style="fill:#000000;fill-opacity:1;stroke:none;stroke-width:0.359569"
           id="ellipse1495"
           cx="122.29124"
           cy="68.507347"
           rx="0.30935124"
           ry="0.34843707" />
        <ellipse
           style="fill:#000000;fill-opacity:1;stroke:none;stroke-width:0.359569"
           id="ellipse1497"
           cx="123.5336"
           cy="64.837196"
           rx="0.2638047"
           ry="0.30753663" />
        <ellipse
           style="fill:#000000;fill-opacity:1;stroke:none;stroke-width:0.359569"
           id="ellipse1499"
           cx="138.77336"
           cy="71.981499"
           rx="0.29392219"
           ry="0.3215844" />
        <ellipse
           style="fill:#000000;fill-opacity:1;stroke:none;stroke-width:0.359569"
           id="ellipse1501"
           cx="141.38928"
           cy="75.149345"
           rx="0.27612901"
           ry="0.33631948" />
        <ellipse
           style="fill:#000000;fill-opacity:1;stroke:none;stroke-width:0.359569"
           id="ellipse1503"
           cx="143.95187"
           cy="73.33773"
           rx="0.47904408"
           ry="0.40578425" />
        <ellipse
           style="fill:#000000;fill-opacity:1;stroke:none;stroke-width:0.359569"
           id="ellipse1505"
           cx="146.04425"
           cy="77.861107"
           rx="0.22950114"
           ry="0.29364073" />
        <ellipse
           style="fill:#000000;fill-opacity:1;stroke:none;stroke-width:0.359569"
           id="ellipse1507"
           cx="148.57326"
           cy="75.277458"
           rx="0.1934793"
           ry="0.29625666" />
      </g>
      <g
         inkscape:groupmode="layer"
         id="g1513"
         inkscape:label="Mouth"
         style="display:inline">
        <path
           style="fill:#dd0e36;fill-opacity:1;stroke:none;stroke-width:0.135908px;stroke-linecap:butt;stroke-linejoin:miter;stroke-opacity:1"
           d="m 125.43961,75.718618 0.21015,0.34217 0.0717,0.32043 0.0582,0.49094 0.27626,0.31142 0.50001,-0.13273 0.31928,-0.237 0.62923,-0.0482 0.56788,0.0834 0.44106,0.29625 0.14199,0.34098 0.148,0.50118 0.0822,0.74148 -0.0422,0.61727 -0.0462,0.46068 -0.18945,0.6181 -0.20746,0.55342 -0.43916,0.86481 -0.42516,0.72148 -0.66798,0.6959 -0.91832,0.79843 -1.01113,0.6777 -0.98414,0.45584 -0.86702,0.26334 -1.23546,0.0933 -0.8783,-0.16801 -1.0274,-0.45553 -0.79027,-0.59202 -0.54954,-0.76738 -0.27696,-0.665 -0.0584,-0.99413 0.0214,-0.90261 0.37797,-1.39349 0.51653,-1.14348 0.6062,-0.83451 0.73006,-0.8375 0.81945,-0.76292 1.03128,-0.64187 0.90928,-0.35376 0.73207,-0.0565 0.83642,0.23636 z"
           id="path1511"
           sodipodi:nodetypes="cccccccccccccccccccccccccccccccccccccccccc" />
      </g>
      <g
         inkscape:groupmode="layer"
         id="g1517"
         inkscape:label="Nose"
         style="display:inline">
        <path
           style="fill:#000000;fill-opacity:1;stroke:none;stroke-width:0.135908px;stroke-linecap:butt;stroke-linejoin:miter;stroke-opacity:1"
           d="m 127.0313,72.219658 0.14585,-0.0908 0.5097,0.13728 1.15933,0.10422 0.86686,0.002 0.90863,-0.17058 0.86981,-0.30045 0.7487,-0.3436 0.42621,-0.14888 0.3729,0.01 0.0525,0.17884 -0.3201,0.40074 -0.17345,0.20285 -0.7218,0.29648 -0.74998,0.24499 -0.71378,0.14291 -0.96154,0.0732 -0.78974,-0.0102 -0.63936,-0.13729 -0.68286,-0.2838 z"
           id="path1515" />
      </g>
      <g
         inkscape:groupmode="layer"
         id="g1587"
         inkscape:label="Eyes"
         style="display:inline">
        <g
           inkscape:groupmode="layer"
           id="g1527"
           inkscape:label="Liner, Lashes, Eyebrows"
           style="display:inline">
          <path
             style="fill:#000000;stroke:none;stroke-width:0.135908px;stroke-linecap:butt;stroke-linejoin:miter;stroke-opacity:1"
             d="m 111.53396,36.083448 0.0644,1.24546 0.57552,1.772 0.5806,0.79271 0.54792,0.56564 0.91088,0.402 0.94093,0.084 0.53344,-0.1042 -0.48584,-0.82485 -0.28959,-1.03534 -0.0502,-0.87593 0.20843,-0.67401 0.29044,-0.47501 -0.12233,1.18108 0.15802,1.00456 0.40977,0.91254 0.50198,0.54592 0.60505,0.45516 0.71649,0.12856 0.48264,-0.13657 0.19431,-0.28393 -0.0587,-0.78255 -0.15378,-1.07991 0.0577,-0.66852 0.25724,-0.64203 0.39902,-0.70148 0.28113,-0.19217 -0.25549,1.03 -0.0318,1.24857 0.12012,0.91289 0.31658,0.77285 0.32565,0.61037 0.29419,0.5093 0.81206,0.46271 1.12064,0.52333 1.50289,0.94077 1.0526,0.84507 0.95608,1.08204 0.64429,0.95271 0.89614,1.55121 0.59285,1.89863 0.50129,2.26102 0.10886,1.90759 0.032,1.83951 0.0213,1.53175 0.0881,1.11579 0.3062,1.6201 0.45079,1.24332 0.16183,0.35335 0.0265,0.44492 -1.13453,-0.1815 -2.51712,-0.49883 -1.55538,-0.29165 -2.70771,-0.56426 -1.99872,-0.57401 -1.69231,-0.53343 -1.35259,-0.57891 -1.38735,-0.70985 -1.58614,-1.01202 -1.5359,-1.20572 -2.60382,-2.78895 -0.60316,-1.04671 2.21713,-8.10125 1.29392,-3.52283 -0.5892,-1.53714 -0.18954,-1.22886 0.10154,-0.83255 z"
             id="path1519" />
          <path
             style="fill:#000000;stroke:none;stroke-width:0.135908px;stroke-linecap:butt;stroke-linejoin:miter;stroke-opacity:1"
             d="m 137.03139,65.893058 1.11573,-0.4399 1.61546,-0.87457 2.4181,-1.42126 1.98221,-1.32111 1.2929,-1.16821 1.20509,-0.68154 1.70997,-0.75507 1.79937,-0.50137 1.99034,0.0342 1.20158,0.18631 1.45859,0.53903 1.26517,0.53942 1.122,0.75184 0.88494,0.11182 1.40858,-0.0672 1.70724,-0.22094 1.51334,-0.55196 2.15138,-0.32574 -1.49828,0.59802 -1.75739,0.5479 -1.63854,0.4566 -1.3383,0.51361 0.61949,0.51114 1.26242,0.17218 0.90381,-0.17139 1.53538,-0.1984 1.40457,-0.14805 -1.6067,0.50849 -1.05448,0.41004 -0.89162,0.18377 -0.46697,0.0841 0.74168,0.41575 0.92485,0.31463 0.94303,0.22854 0.77466,-0.10348 1.17941,-0.24467 -1.09925,0.58357 -1.37634,0.30449 -0.78656,-0.0266 0.69508,0.60962 0.68598,0.59422 0.7183,0.31403 0.25211,0.09 -0.74486,0.19607 -1.03813,0.16013 -0.96341,0.46908 -0.91747,0.42007 -0.47154,0.84223 -0.42413,0.3768 -1.73001,0.93806 -1.2423,0.60104 -1.39274,0.69247 -1.17812,0.53202 -1.87084,0.57787 -1.00603,0.17846 -1.27187,0.0991 -1.33708,-0.0837 -1.83116,-0.29848 -1.42636,-0.48004 -0.96246,-0.68653 -1.58692,-1.24406 -1.08219,-0.99116 -1.56934,-1.19554 -1.01942,-0.65386 -0.83914,-0.546 -0.2645,-0.12062 z"
             id="path1521" />
          <path
             style="fill:#000000;fill-opacity:1;stroke:none;stroke-width:0.135908px;stroke-linecap:butt;stroke-linejoin:miter;stroke-opacity:1"
             d="m 134.59075,52.410108 -0.0498,-1.61397 -0.2238,-1.35234 -0.36404,-1.36049 -0.40304,-1.41988 -0.5155,-1.18607 -0.72193,-1.19294 -0.69762,-0.93476 -0.89661,-1.11343 -0.94352,-1.03245 -0.98011,-1.02126 -1.2267,-1.04823 -1.18623,-0.90006 -1.13652,-0.76291 -1.20169,-0.71983 -1.16864,-0.54152 -1.33766,-0.59608 -1.57382,-0.55119 -1.54646,-0.36296 -0.99764,-0.1661 -1.18162,-0.0534 1.38811,-0.0941 1.44725,0.17355 1.35644,0.27671 1.48436,0.45453 1.40276,0.50302 1.48095,0.6603 1.58544,0.872 1.88126,1.17431 1.45879,1.12488 1.36471,1.06326 1.26775,1.45258 1.20097,1.65523 0.7446,1.53848 0.74365,2.145 0.49291,1.60026 -0.0608,0.94288 -0.26948,1.07047 -0.37678,0.8965 z"
             id="path1523" />
          <path
             style="fill:#000000;fill-opacity:1;stroke:none;stroke-width:0.135908px;stroke-linecap:butt;stroke-linejoin:miter;stroke-opacity:1"
             d="m 143.60285,56.303988 0.69374,-0.98311 0.74632,-0.50271 1.58487,-0.81149 1.43405,-0.61058 1.53748,-0.46553 1.75087,-0.35332 1.53738,-0.15045 1.4286,-0.0243 1.56421,0.17039 1.80131,0.2336 1.44045,0.31513 1.46061,0.3976 1.65202,0.46326 1.46338,0.45699 -1.30311,-0.61343 -1.70105,-0.65693 -1.6044,-0.59803 -1.25327,-0.39494 -1.40972,-0.30158 -1.80469,-0.26356 -1.70143,-0.15499 -1.83085,0.059 -1.62548,0.36788 -1.32529,0.26019 -1.82591,0.63024 -1.55581,0.71768 -0.92083,0.43074 -0.26225,0.3191 -0.14949,0.41163 -0.016,0.57337 0.0579,0.6979 z"
             id="path1525"
             sodipodi:nodetypes="ccccccccccccccccccccccccccccccccc" />
        </g>
        <g
           inkscape:groupmode="layer"
           id="g1533"
           inkscape:label="Whites"
           style="display:inline">
          <path
             style="fill:#ffffff;fill-opacity:1;stroke:none;stroke-width:0.135908px;stroke-linecap:butt;stroke-linejoin:miter;stroke-opacity:1"
             d="m 112.73624,41.286038 -1.59609,4.88831 -0.73089,2.61393 -0.5811,2.59364 0.71326,1.94403 1.18872,1.54444 1.47699,1.73262 1.77195,1.38512 2.35166,1.31035 2.6454,0.85158 3.31482,0.75705 2.94654,0.43096 0.84013,-0.0474 0.24604,-0.0728 0.29442,-0.34862 -0.11247,-1.06012 -0.26744,-1.69104 -0.20989,-2.75441 -0.17509,-2.487 -0.27475,-1.49009 -0.62146,-1.76501 -0.98859,-1.99228 -0.93878,-1.42231 -1.35719,-1.37456 -1.46157,-1.06087 -1.92422,-1.03156 -1.70352,-0.61387 -1.57956,-0.44709 -1.97484,-0.38423 -0.97545,-0.27988 z"
             id="path1529" />
          <path
             style="fill:#ffffff;stroke:none;stroke-width:0.135908px;stroke-linecap:butt;stroke-linejoin:miter;stroke-opacity:1"
             d="m 138.60845,65.720028 0.19712,-0.26839 0.77671,-0.20593 1.79506,-0.77835 1.72192,-1.142 2.07962,-1.35499 1.88161,-0.78629 2.11504,-0.85793 1.5866,-0.30466 h 1.51315 l 1.64657,0.24025 1.79645,0.68623 1.94659,0.98367 1.38185,1.19605 0.86392,0.84308 0.68748,0.48517 -0.27322,1.50703 -0.98375,1.94598 -0.65,0.92461 -1.45426,0.82265 -1.82342,0.93001 -1.60891,0.69604 -1.65909,0.4693 -1.87577,0.32369 -1.65205,-0.14535 -1.54157,-0.31277 -1.63042,-0.42995 -1.19002,-0.70362 -1.86057,-1.41669 -1.79143,-1.53701 -1.75262,-1.26444 -0.2483,-0.28417 z"
             id="path1531" />
        </g>
        <g
           inkscape:groupmode="layer"
           id="g1579"
           inkscape:label="Irises"
           style="display:inline">
          <g
             inkscape:groupmode="layer"
             id="g1539"
             inkscape:label="Iris Blue"
             style="display:inline">
            <ellipse
               style="opacity:1;fill:#2e97f1;fill-opacity:1;stroke:none;stroke-width:0.146677"
               id="ellipse1535"
               cx="128.73793"
               cy="4.7868495"
               rx="5.5074883"
               ry="7.1408367"
               transform="rotate(21.177997)" />
            <ellipse
               style="opacity:1;fill:#2e97f1;fill-opacity:1;stroke:none;stroke-width:0.156787"
               id="ellipse1537"
               cx="164.29767"
               cy="2.9822612"
               rx="4.5900049"
               ry="6.0871468"
               transform="matrix(0.92304396,0.38469448,-0.3830268,0.92373723,0,0)" />
          </g>
          <g
             inkscape:groupmode="layer"
             id="g1577"
             inkscape:label="White Loops">
            <ellipse
               style="opacity:1;fill:none;fill-opacity:1;stroke:#ffffff;stroke-width:0.359569;stroke-miterlimit:4;stroke-dasharray:none;stroke-opacity:1"
               id="ellipse1541"
               cx="128.15695"
               cy="-18.160208"
               rx="1.3053482"
               ry="2.2141144"
               transform="rotate(29.086585)" />
            <ellipse
               style="opacity:1;fill:none;fill-opacity:1;stroke:#ffffff;stroke-width:0.359569;stroke-miterlimit:4;stroke-dasharray:none;stroke-opacity:1"
               id="ellipse1543"
               cx="128.51355"
               cy="-8.2857409"
               rx="1.3053482"
               ry="2.2141144"
               transform="rotate(29.086585)" />
            <ellipse
               style="opacity:1;fill:none;fill-opacity:1;stroke:#ffffff;stroke-width:0.359721;stroke-miterlimit:4;stroke-dasharray:none;stroke-opacity:1"
               id="ellipse1545"
               cx="-14.396761"
               cy="-125.33659"
               rx="1.2588701"
               ry="2.0784638"
               transform="matrix(-0.45736483,0.88927915,-0.86970233,-0.4935766,0,0)" />
            <ellipse
               style="opacity:1;fill:none;fill-opacity:1;stroke:#ffffff;stroke-width:0.360908;stroke-miterlimit:4;stroke-dasharray:none;stroke-opacity:1"
               id="ellipse1547"
               cx="-19.906328"
               cy="-133.33803"
               rx="1.2395308"
               ry="1.9417429"
               transform="matrix(-0.42310287,0.90608165,-0.84797091,-0.53004276,0,0)" />
            <ellipse
               style="opacity:1;fill:none;fill-opacity:1;stroke:#ffffff;stroke-width:0.360457;stroke-miterlimit:4;stroke-dasharray:none;stroke-opacity:1"
               id="ellipse1549"
               cx="89.939255"
               cy="-88.017792"
               rx="1.1920989"
               ry="1.8286427"
               transform="matrix(0.44306865,0.89648769,-0.93599215,0.35202088,0,0)" />
            <ellipse
               style="opacity:1;fill:none;fill-opacity:1;stroke:#ffffff;stroke-width:0.360457;stroke-miterlimit:4;stroke-dasharray:none;stroke-opacity:1"
               id="ellipse1551"
               cx="89.688156"
               cy="-80.215195"
               rx="1.1920989"
               ry="1.8286427"
               transform="matrix(0.44306865,0.89648769,-0.93599215,0.35202088,0,0)" />
            <ellipse
               style="opacity:1;fill:none;fill-opacity:1;stroke:#ffffff;stroke-width:0.361185;stroke-miterlimit:4;stroke-dasharray:none;stroke-opacity:1"
               id="ellipse1553"
               cx="-81.573288"
               cy="-108.36884"
               rx="1.236486"
               ry="1.9275833"
               transform="matrix(-0.80587928,0.59207988,-0.47935287,-0.87762226,0,0)" />
            <ellipse
               style="opacity:1;fill:none;fill-opacity:1;stroke:#ffffff;stroke-width:0.361185;stroke-miterlimit:4;stroke-dasharray:none;stroke-opacity:1"
               id="ellipse1555"
               cx="-96.741676"
               cy="-102.8531"
               rx="1.2364861"
               ry="1.9275833"
               transform="matrix(-0.89868856,0.43858736,-0.3148571,-0.94913909,0,0)" />
            <ellipse
               style="display:inline;fill:none;fill-opacity:1;stroke:#ffffff;stroke-width:0.359669;stroke-miterlimit:4;stroke-dasharray:none;stroke-opacity:1"
               id="ellipse1557"
               cx="128.45815"
               cy="-16.721558"
               rx="1.1976451"
               ry="2.0193105"
               transform="matrix(0.8589604,0.51204201,-0.48305096,0.87559224,0,0)" />
            <ellipse
               style="display:inline;fill:none;fill-opacity:1;stroke:#ffffff;stroke-width:0.361288;stroke-miterlimit:4;stroke-dasharray:none;stroke-opacity:1"
               id="ellipse1559"
               cx="165.81107"
               cy="-23.602671"
               rx="0.94397712"
               ry="1.7435945"
               transform="matrix(0.83670935,0.54764721,-0.42742765,0.90404956,0,0)" />
            <ellipse
               style="display:inline;fill:none;fill-opacity:1;stroke:#ffffff;stroke-width:0.36028;stroke-miterlimit:4;stroke-dasharray:none;stroke-opacity:1"
               id="ellipse1561"
               cx="-7.2783341"
               cy="-167.89386"
               rx="0.84842539"
               ry="1.3665559"
               transform="matrix(-0.35988795,0.93299553,-0.89738181,-0.44125489,0,0)" />
            <ellipse
               style="display:inline;fill:none;fill-opacity:1;stroke:#ffffff;stroke-width:0.362191;stroke-miterlimit:4;stroke-dasharray:none;stroke-opacity:1"
               id="ellipse1563"
               cx="-15.208719"
               cy="-163.65488"
               rx="1.0699084"
               ry="1.5997846"
               transform="matrix(-0.32628379,0.94527186,-0.8764039,-0.48157679,0,0)" />
            <ellipse
               style="display:inline;fill:none;fill-opacity:1;stroke:#ffffff;stroke-width:0.359782;stroke-miterlimit:4;stroke-dasharray:none;stroke-opacity:1"
               id="ellipse1565"
               cx="164.41125"
               cy="-23.768932"
               rx="1.0143309"
               ry="1.773317"
               transform="matrix(0.86159175,0.50760187,-0.46501485,0.88530288,0,0)" />
            <ellipse
               style="display:inline;fill:none;fill-opacity:1;stroke:#ffffff;stroke-width:0.359782;stroke-miterlimit:4;stroke-dasharray:none;stroke-opacity:1"
               id="ellipse1567"
               cx="134.41646"
               cy="85.056458"
               rx="1.0143309"
               ry="1.773317"
               transform="matrix(0.98781956,-0.1556037,0.20355375,0.97906377,0,0)" />
            <ellipse
               style="display:inline;fill:none;fill-opacity:1;stroke:#ffffff;stroke-width:0.3668;stroke-miterlimit:4;stroke-dasharray:none;stroke-opacity:1"
               id="ellipse1569"
               cx="62.716824"
               cy="-167.72816"
               rx="1.1624941"
               ry="1.5635201"
               transform="matrix(-0.3191003,0.94772095,-0.99901343,-0.04440903,0,0)" />
            <ellipse
               style="display:inline;fill:none;fill-opacity:1;stroke:#ffffff;stroke-width:0.365015;stroke-miterlimit:4;stroke-dasharray:none;stroke-opacity:1"
               id="ellipse1571"
               cx="58.799145"
               cy="-171.09848"
               rx="1.13351"
               ry="1.3824292"
               transform="matrix(-0.28928689,0.95724244,-0.9987758,-0.04946613,0,0)" />
            <ellipse
               style="display:inline;fill:none;fill-opacity:1;stroke:#ffffff;stroke-width:0.365015;stroke-miterlimit:4;stroke-dasharray:none;stroke-opacity:1"
               id="ellipse1573"
               cx="-168.28802"
               cy="8.0564222"
               rx="1.13351"
               ry="1.3824294"
               transform="matrix(-0.88882921,-0.45823862,0.22994097,-0.97320458,0,0)" />
            <ellipse
               style="display:inline;fill:none;fill-opacity:1;stroke:#ffffff;stroke-width:0.359789;stroke-miterlimit:4;stroke-dasharray:none;stroke-opacity:1"
               id="ellipse1575"
               cx="164.20772"
               cy="-5.6399097"
               rx="0.860695"
               ry="1.5671301"
               transform="matrix(0.90185365,0.43204167,-0.47619995,0.87933703,0,0)" />
          </g>
        </g>
        <g
           inkscape:groupmode="layer"
           id="g1585"
           inkscape:label="Pupils"
           style="display:inline">
          <ellipse
             style="opacity:1;fill:#000000;fill-opacity:1;stroke:none;stroke-width:0.359669;stroke-miterlimit:4;stroke-dasharray:none"
             id="ellipse1581"
             cx="128.49413"
             cy="-16.794941"
             rx="1.0324359"
             ry="1.7407566"
             transform="matrix(0.8589604,0.51204201,-0.48305096,0.87559224,0,0)" />
          <ellipse
             style="opacity:1;fill:#000000;fill-opacity:1;stroke:none;stroke-width:0.139014"
             id="ellipse1583"
             cx="164.35358"
             cy="-9.640583"
             rx="0.73747176"
             ry="1.3920109"
             transform="rotate(26.991777)" />
        </g>
      </g>
    </g>
    <g
       inkscape:groupmode="layer"
       id="g1641"
       inkscape:label="Hand and Soda"
       style="display:inline">
      <g
         inkscape:groupmode="layer"
         id="g1593"
         inkscape:label="Black"
         style="display:inline">
        <path
           style="fill:#000000;stroke:none;stroke-width:0.135908px;stroke-linecap:butt;stroke-linejoin:miter;stroke-opacity:1"
           d="m 123.53712,79.027768 -0.21597,0.13051 -0.57845,0.53669 -0.20893,0.542 -0.035,0.56897 0.0448,0.4051 0.56449,0.36817 0.53121,0.28359 0.48549,-0.0796 0.45654,-0.26789 2.10723,0.0112 2.29607,-0.21752 2.44541,-0.12391 2.00818,-0.13098 0.70175,-0.0652 0.34867,0.0578 0.42072,0.30786 0.27651,0.46483 0.15776,0.52886 0.15069,0.69926 0.1942,2.38714 0.17306,1.79481 0.13957,3.42588 0.12861,3.32724 0.12479,1.58094 0.13807,1.90562 0.024,1.96242 0.16007,6.946862 -0.68198,0.83596 -0.97823,0.81386 -1.17142,0.83248 -1.91362,1.7383 -1.38256,1.50841 -0.94862,1.35038 -0.8573,2.04129 -0.11693,1.41561 0.0477,1.85735 0.29948,2.73244 0.7209,2.68704 1.09971,2.6485 -1.8784,2.41522 -0.67514,1.12227 -0.46023,1.56933 -0.10021,1.22774 0.0868,1.52887 0.20492,1.18975 0.40144,1.14018 0.83883,1.09533 1.0393,0.97421 1.05037,0.73384 1.33066,0.5745 1.3911,0.24571 1.91384,0.0934 1.53599,0.004 0.63471,0.70026 1.36685,2.52219 3.91366,8.2339 3.49648,7.75051 2.40654,5.16043 0.42726,0.4089 0.65824,0.0673 0.65929,0.36807 0.4268,0.52112 0.2283,0.40971 0.85018,0.29684 1.86278,0.40938 2.05723,0.20913 1.71682,-0.0213 2.7785,-0.60626 2.8478,-0.88876 3.74473,-1.56739 3.33122,-1.68762 2.79318,-1.90723 2.83005,-2.19938 1.30355,-1.58225 1.19162,-1.5925 0.51622,-1.03658 0.0124,-0.84065 0.0691,-0.76715 0.20174,-0.64332 -0.10357,-1.48053 -0.60217,-2.47275 -1.01814,-3.35039 -1.00457,-3.56671 -0.35837,-2.23024 -0.29131,-1.21509 0.86003,-1.38765 0.99874,-1.24375 0.67614,-1.30701 0.38175,-1.52801 0.0799,-1.03613 -0.13285,-0.85009 -0.59353,-0.67824 -0.30333,-0.18193 0.37361,-1.10379 0.16573,-1.36054 -0.024,-1.15689 -0.62893,-0.95623 -0.5394,-0.41196 0.51064,-1.44216 0.3504,-1.38252 -0.0263,-0.93941 -0.2118,-0.53072 -0.57399,-0.4681 -0.81906,-0.13352 -0.48313,-0.56913 -0.0477,-0.29259 0.18607,-1.61063 0.18942,-1.73356 -0.0981,-1.18283 -0.45292,-1.34113 -0.83578,-1.0362 -0.89056,-0.61173 -1.07822,-0.40732 -1.20185,-0.0728 -1.05779,0.0243 -1.54494,0.16724 -1.8927,-7.54686 -0.58408,-1.50998 -0.88667,-1.38479 -1.41185,-1.394642 -1.34166,-0.58209 -2.07114,-0.35051 -2.74928,-0.0138 -2.34559,0.33918 -3.93484,0.92632 -3.43969,0.987142 -3.4098,1.5126 -3.26258,1.23486 -0.39644,-0.32829 -0.24624,-3.20656 -0.73397,-4.960772 -0.37071,-5.93169 -0.51457,-5.86983 -0.54155,-3.14368 -0.60074,-1.6613 -0.5558,-0.69095 -0.91665,-0.44911 -0.91094,-0.0727 -1.85738,0.16426 -1.48944,0.28595 -6.21716,0.91935 -2.41231,0.46854 -0.3966,-0.15787 h -0.31062 z"
           id="path1591"
           sodipodi:nodetypes="cccccccccccccccccccccccccccccccccccccccccccccccccccccccccccccccccccccccccccccccccccccccccccccccccccccccccccccccccccccccccccccccccccccccccccccccccc" />
      </g>
      <g
         inkscape:groupmode="layer"
         id="g1597"
         inkscape:label="Can Label White"
         style="display:inline">
        <path
           style="fill:#ffffff;stroke:none;stroke-width:0.135908px;stroke-linecap:butt;stroke-linejoin:miter;stroke-opacity:1"
           d="m 130.16973,121.96546 4.98504,-0.0368 4.51492,-0.5064 3.97372,-1.03761 5.40621,-2.08854 5.35063,-2.78553 4.21675,-2.81687 4.09479,-3.05776 3.46065,-3.5084 1.3949,4.45404 1.10397,4.49699 0.69069,3.02971 -2.27655,2.34108 -1.40395,1.9128 -0.92137,1.3935 -0.50695,1.15676 -0.16164,1.2796 0.26045,0.99775 0.68163,0.70863 1.22815,0.54131 -0.80953,0.98416 -0.37696,1.17829 -0.025,1.11517 0.39981,0.99167 0.59738,0.60241 0.91218,0.43867 0.55192,0.18524 -0.36457,1.02766 -0.0731,0.89516 0.0964,0.59991 0.61071,0.6254 1.0389,0.4678 1.24499,0.33396 0.0854,0.83464 0.58196,0.82896 0.6692,0.45962 1.10648,0.003 1.19042,-0.37422 0.89673,-0.27477 0.39993,0.0325 0.3756,0.6034 1.11165,4.14738 1.40732,4.85161 0.84352,2.768 -0.027,1.2988 -0.46959,1.23505 -1.95685,2.87459 -2.0101,1.89691 -1.73058,1.17673 -2.93936,1.90843 -3.38924,1.609 -3.36661,1.27104 -3.20085,0.97314 -1.92639,0.34769 -1.82507,0.0714 -2.43338,-0.20341 -1.3806,-0.36892 -1.02499,-0.63528 -1.12529,-0.75099 -1.21494,-2.18503 -2.05264,-4.5328 -3.3842,-7.52279 -1.41768,-3.05726 -1.52053,-2.8382 -1.50386,-3.37381 1.39447,-0.57283 2.2188,-0.71546 1.41794,-0.76765 1.37176,-0.92888 0.95258,-1.14768 0.59773,-1.11335 0.13174,-1.14211 -0.33336,-1.30682 -0.84443,-1.18504 -1.52131,-0.69798 -1.47905,-0.24406 -1.6261,0.39838 -1.51195,0.50586 -1.79257,0.62852 -1.28584,0.52249 -0.93177,0.2152 -0.52919,-0.45923 -1.96926,-3.75834 -1.47298,-3.35547 -1.39425,-3.33371 z"
           id="path1595" />
      </g>
      <g
         inkscape:groupmode="layer"
         id="g1601"
         inkscape:label="Can Label Red"
         style="display:inline">
        <path
           id="path1599"
           style="fill:#dd0e36;fill-opacity:1;stroke:none;stroke-width:0.999999px;stroke-linecap:butt;stroke-linejoin:miter;stroke-opacity:1"
           d="m 893.87109,192.43945 -34.35742,18.00977 20.13867,3.92578 22.72461,9.77148 35.19141,15.45313 6.31836,-31.64063 -30.66211,-10.4375 z m 3.37696,59.44336 -18.39649,0.50391 -23.8457,4.78711 -23.12109,6.5957 -18.79297,6.99024 -22.88868,11.03125 -21.66601,14.46093 -20.04102,13.71094 -18.75195,18.55469 -20.85547,21.11133 -14.74609,17.19726 -11.02344,15.78321 -17.1875,18.26562 22.06055,80.55469 37.29101,0.35351 -0.1289,-37.25586 1.46289,-19.42382 11.00781,-34.07422 9.24219,-24.78125 11.76562,-18.79297 16.67774,-16.35352 18.10937,-14.42187 16.73047,-10.09571 22.38281,-10.14648 23.75391,-7.06836 19.49609,-3.06055 23.06446,0.53516 15.92187,5.26953 48.06055,24.86524 -12.18164,-58.53711 -30.63477,-5.04493 z m -182.51953,24.86914 -97.95118,1.56641 21.75196,89.32617 24.85937,-18.06641 3.00586,-15.46874 4.74805,-11.31836 6.55664,-10.03125 10.95508,-11.91016 z m 124,76.43946 -7.35547,1.10547 -4.67188,1.85546 -6.27929,2.81836 -6.75,5.43555 -5.38672,6.01953 -4.32422,7.36328 -2.44336,9.56641 -0.26563,9.5 1.77149,8.00976 4.74414,11.42383 11.18554,24.45508 9.03321,20.44727 4.57031,7.18164 5.97852,5.58398 9.07812,4.08789 10.78906,1.07031 8.69727,-0.12695 8.4043,-2.5664 9.25976,-4.65235 6.7793,-5.78711 4.42969,-7.06445 3.42382,-7.5293 0.9668,-9.74219 -0.40039,-6.52343 -3.52539,-9.8418 -7.98828,-17.6875 -10.70508,-23.7832 -4.52539,-11.79102 -5.04102,-8.10742 -5.30273,-3.89063 -6.82227,-4.21289 -8.27734,-2.17187 z m 4.48046,7.69726 6.86329,0.92969 6.63281,3.45898 4.67578,3.75977 3.94531,3.5293 2.35156,5.27539 1.64844,5.20312 -2.78125,1.40039 -4.28515,-6.20117 -2.64258,-4.55469 -5.71875,-4.50781 -5.95117,-2.28711 -6.6875,-1.2168 -6.02149,0.54297 -5.61328,1.19532 -4.57422,3.2207 -3.51953,2.73047 -3.67578,4.55664 -1.30664,3.80078 -2.82617,1.68359 -2.07227,-1.55664 2.39063,-6.2539 5.41406,-6.53711 6.55859,-4.26563 9.11328,-3.15039 z m -2.6582,25.83594 2.76367,0.51758 3.35743,2.27734 1.42578,3.72461 -1.0625,4.67969 -2.83789,2.53515 -4.18946,1.61719 -3.97461,-0.74805 -2.85937,-2.66796 -0.8418,-3.08985 0.83203,-3.88281 1.65625,-2.71289 3.21289,-1.55273 z m 147.4668,23.45312 -33.8086,8.12696 -8.63281,28.86328 -8.21484,21.67578 -9.68945,20.22852 -13.76172,22.82421 -17.36914,17.60743 -18.32813,14.63476 -17.59766,10.02344 -19.0039,6.29883 -21.61719,2.96679 -24.91602,-0.24804 -18.35351,-2.20313 -31.4082,-3.49609 16.89062,47.78125 41.84766,8.11523 19.85547,-0.56836 23.86523,-4.81836 16.01367,-4.80468 16.26953,-7.02149 15.7793,-10.33203 14.58008,-12.39258 16.39844,-18.23047 13.51171,-18.90234 8.21485,-18.42578 9.2832,-16.62109 7.24219,-21.95899 5.49219,-18.27734 4.29883,-18.2793 3.65039,-18.9375 z m -111.92969,11.51368 5.19727,1.62695 4.84179,4.16797 3.99414,5.74023 0.92188,6.20117 -1.41992,7.13672 -4.0918,6.55274 -4.91992,5.17187 -6.76758,4.46485 -5.91992,2.92187 -8.32031,1.96094 -8.19727,-0.21094 -6.20898,-1.27344 -4.72255,-2.66802 -3.38898,-5.2657 -1.39043,-5.48815 0.29056,-5.14776 1.52467,-4.95352 2.94258,-3.64091 6.99805,-4.70508 11.40235,-6.09375 9.90039,-4.95117 z m 133.48441,23.02734 -18.50589,5.60547 -1.22266,36.7539 -1.67578,16.67188 -1.7793,21.63086 -4.49414,17.24609 -6.43359,14.9668 -5.09571,10.30859 -18.9707,31.98243 85.02147,-30.78516 10.9004,-61.47852 z"
           transform="matrix(0.13590834,0,0,0.13590834,42.203404,81.221138)"
           clip-path="url(#clipPath1341)"
           sodipodi:nodetypes="ccccccccccccccccccccccccccccccccccccccccccccccccccccccccccccccccccccccccccccccccccccccccccccccccccccccccccccccccccccccccccccccccccccccccccccccccccccccccccccccccccccccccccccccccccccccccccccc" />
      </g>
      <g
         inkscape:groupmode="layer"
         id="g1611"
         inkscape:label="Can Top"
         style="display:inline">
        <path
           style="opacity:1;fill:#ffffff;stroke:none;stroke-width:0.135908px;stroke-linecap:butt;stroke-linejoin:miter;stroke-opacity:1"
           d="m 136.27327,108.38912 0.36055,0.31622 0.18985,0.6472 -0.22634,0.51888 -1.08524,0.93192 -1.20899,0.76305 -1.49189,1.37629 -0.90271,1.29296 -0.6485,1.2478 -0.30636,1.01257 -0.004,0.82342 0.14069,0.46213 0.53556,0.74439 0.97295,0.50179 1.49718,0.21012 2.67132,-0.13252 3.26994,-0.72779 4.14783,-1.20804 3.59146,-1.44168 4.06149,-1.92408 4.35772,-2.76261 2.89449,-2.24967 2.17842,-2.07602 0.80959,-1.37487 0.30929,-1.35706 -0.0703,-0.9302 -0.77114,-1.00808 -1.17176,-0.43165 -1.62496,-0.32343 -2.12678,0.22271 -2.39003,0.28789 -1.56246,0.38324 -1.27448,0.4561 -1.85972,0.52206 -1.66225,0.58411 -1.40394,0.7371 -1.801,0.64085 -1.49324,0.71276 -1.01148,0.49384 -0.12237,-1.26658 1.93728,-1.01436 2.78813,-1.28356 2.25839,-0.83862 2.43769,-0.94284 2.49821,-0.52778 2.45624,-0.470742 1.86248,-0.0528 1.95216,0.119542 1.68325,0.39053 1.46498,1.20241 0.54715,0.95418 0.24269,1.44923 -0.21402,1.16413 -0.85337,1.52638 -1.51573,1.73003 -2.18597,2.10155 -1.74888,1.29139 -1.73222,1.28913 -2.46054,1.58852 -2.40693,1.38777 -3.15473,1.51722 -3.11065,1.19216 -3.17852,0.95091 -3.19078,0.70894 -2.97907,0.37716 -1.82256,-0.1165 -1.76677,-0.37792 -1.43818,-0.68168 -0.7466,-0.72263 -0.29648,-1.50143 0.17188,-1.28444 0.56505,-1.5929 0.91433,-1.56557 1.30224,-1.44779 1.31521,-1.31241 1.19362,-0.83592 z"
           id="path1603" />
        <path
           style="opacity:1;fill:#ffffff;stroke:none;stroke-width:0.135908px;stroke-linecap:butt;stroke-linejoin:miter;stroke-opacity:1"
           d="m 135.27582,111.42365 -1.05878,0.66154 -0.79292,0.67499 -0.75102,0.79532 -0.61123,0.94186 -0.55768,1.12415 -0.16812,0.93482 0.0752,0.723 0.39748,0.64554 0.59803,0.38363 1.283,0.24647 1.7983,-0.0196 2.68454,-0.41124 3.10794,-0.7694 3.65724,-1.25666 3.19741,-1.27168 2.88325,-1.59225 3.59903,-2.06419 2.81491,-1.90533 2.29254,-2.02256 1.67994,-1.99899 0.34344,-1.26553 -0.10156,-1.00329 -0.64657,-0.55946 -0.51497,-0.28749 -1.46199,-0.30668 -1.68836,0.086 -2.12457,0.25751 -2.52703,0.65443 -2.60156,0.68438 -2.09931,0.76065 -2.16093,0.92352 -2.26056,1.05083 -1.16545,0.82831 -0.12936,0.28487 0.20023,0.28959 1.79571,-0.24605 1.87772,0.0759 1.10499,0.1572 1.36842,0.30341 1.17899,0.35233 0.93174,0.49514 0.4084,0.58293 0.16087,0.72621 -0.28415,0.60972 -0.59937,0.67261 -0.92986,0.93007 -1.20925,0.76544 -1.80677,0.70446 -1.93337,0.60113 -1.83453,0.36976 -2.00567,0.14393 -2.01697,-0.1233 -1.83517,-0.24176 -1.23647,-0.4436 -0.51709,-0.4787 -0.15695,-0.53635 0.10594,-0.78435 z"
           id="path1605" />
        <path
           id="path1607"
           style="opacity:1;fill:#ffffff;stroke:none;stroke-width:0.135908px;stroke-linecap:butt;stroke-linejoin:miter;stroke-opacity:1"
           d="m 143.78267,107.7652 0.10008,0.86801 -0.24448,0.97286 -0.65857,0.74192 -1.52154,1.43262 -0.92242,0.71882 -1.59454,0.42764 -1.36147,0.22085 -1.02781,-0.11361 -0.24421,0.21023 0.46241,0.60681 0.98852,0.42073 1.37183,0.21315 1.92183,0.0167 1.79892,-0.19935 1.99191,-0.43003 1.87697,-0.65352 1.75805,-0.68379 1.0286,-0.86429 0.7467,-0.66256 0.2381,-0.67264 -0.1083,-0.89721 -0.53753,-0.39524 -1.13876,-0.49479 -1.32988,-0.39685 -1.50163,-0.21156 -1.63595,-0.14626 z m 4.0316,1.60887 0.46665,0.0486 0.19351,0.34694 -0.0236,0.55929 -0.22086,0.79952 -0.4693,0.67026 -0.92322,0.64078 -0.97048,0.48391 -0.78094,0.18263 -0.65246,0.0441 -0.43905,-0.3188 -0.0942,-0.40189 0.10564,-0.47435 0.21793,-0.51523 0.47913,-0.60973 0.76077,-0.78492 0.55478,-0.32331 0.84465,-0.21475 z" />
        <path
           style="opacity:1;fill:#ffffff;stroke:none;stroke-width:0.135908px;stroke-linecap:butt;stroke-linejoin:miter;stroke-opacity:1"
           d="m 146.56499,109.874 -0.5174,0.12448 -0.65221,0.50768 -0.50204,0.48867 -0.30074,0.41266 -0.26593,0.43836 -0.0879,0.43833 0.0885,0.37473 0.32955,0.15915 0.58733,-0.0545 0.6737,-0.27772 0.83918,-0.32933 0.62479,-0.43796 0.36094,-0.41974 0.34918,-0.61668 0.1126,-0.47143 -0.018,-0.41053 -0.19355,-0.15924 -0.54039,0.0361 z"
           id="path1609" />
      </g>
      <g
         inkscape:groupmode="layer"
         id="g1615"
         inkscape:label="Straw">
        <path
           style="fill:#ffffff;stroke:none;stroke-width:0.135908px;stroke-linecap:butt;stroke-linejoin:miter;stroke-opacity:1"
           d="m 123.76938,79.423398 -0.41502,0.16813 -0.2838,0.32832 -0.22316,0.45002 0.0794,0.52234 0.16022,0.25311 0.41525,0.23229 0.74565,-0.0129 4.11362,-0.30527 3.25079,-0.29458 1.79984,-0.15708 1.06956,-0.016 0.44768,0.0981 0.47396,0.50662 0.39118,0.72516 0.0492,1.94017 0.56404,5.82321 0.24524,5.88625 0.5237,7.405762 0.42779,8.82835 0.4623,0.51204 0.86092,0.19153 0.83776,-0.0659 0.85441,-0.43377 0.81898,-0.82657 0.26123,-0.50432 -0.0947,-2.81754 -0.43273,-3.64346 -0.41971,-5.352422 -0.41018,-6.66088 -0.69007,-6.33727 -0.41636,-3.25608 -0.30554,-2.1545 -0.31551,-1.02666 -0.61264,-0.96902 -0.84433,-0.44207 -1.0054,-0.0861 -1.73406,0.10459 -2.50427,0.3725 -6.3245,0.89279 z"
           id="path1613" />
      </g>
      <g
         inkscape:groupmode="layer"
         id="g1627"
         inkscape:label="Skin"
         style="display:inline">
        <path
           style="fill:#fd99ac;fill-opacity:1;stroke:none;stroke-width:0.135908px;stroke-linecap:butt;stroke-linejoin:miter;stroke-opacity:1"
           d="m 131.30463,128.60742 1.15004,2.15325 1.0261,1.77242 0.42526,0.93238 0.12663,0.51727 0.44641,0.33722 0.70979,0.0684 0.99765,-0.25639 1.84075,-0.73651 2.08395,-0.74886 1.57575,-0.39445 1.08765,-0.18788 1.23052,0.052 0.85638,0.23734 0.79933,0.58037 0.43864,0.67475 0.26421,0.57383 0.0163,0.75728 -0.22621,0.59491 -0.26499,0.22166 0.0475,-0.79612 -0.1198,-0.63588 -0.39943,-0.3684 -0.3371,-0.21307 -0.69385,-0.17956 -0.71596,-0.0323 -0.91918,0.0753 -0.67802,0.1505 -0.4793,0.30621 -0.3581,0.4946 -0.0239,0.35176 0.2756,0.68821 0.79227,0.96672 0.67134,0.62608 0.65687,0.46172 0.31696,0.36324 -0.75306,0.47816 -1.21351,0.48631 -1.85697,0.54538 -1.50475,0.34219 -1.89842,0.0579 -2.06551,-0.0294 -1.90574,-0.32079 -1.47703,-0.69423 -1.06761,-0.824 -0.94732,-1.54334 -0.52627,-2.28016 -0.0511,-1.65386 0.26962,-1.47031 0.88719,-1.22689 z"
           id="path1617" />
        <path
           style="fill:#fd99ac;fill-opacity:1;stroke:none;stroke-width:0.135908px;stroke-linecap:butt;stroke-linejoin:miter;stroke-opacity:1"
           d="m 173.91854,138.81052 -0.50069,-0.9301 -0.40833,-0.18428 -0.94386,0.1337 -0.53245,0.4047 -0.0245,0.90469 -0.21144,0.18527 -0.69268,-0.7521 -0.0686,-0.56194 0.22539,-0.48379 0.27412,-0.27483 0.97233,-0.3599 0.83158,-0.42206 1.08988,-0.43062 0.92271,-0.60843 0.90331,-1.06471 0.66104,-0.84453 0.71307,-0.97329 0.42489,-0.71031 0.42073,-0.63786 0.18664,-0.15185 0.43784,0.21953 0.24722,0.37116 0.0251,0.91713 -0.21414,1.15537 -0.49712,0.92818 -0.74154,1.2755 -0.61384,0.73034 -0.69168,0.71985 -0.55382,0.67273 -0.65282,0.46529 -0.68956,0.29184 z"
           id="path1619"
           sodipodi:nodetypes="ccccccccccccccccccccccccccccccccc" />
        <path
           style="fill:#fd99ac;fill-opacity:1;stroke:none;stroke-width:0.135908px;stroke-linecap:butt;stroke-linejoin:miter;stroke-opacity:1"
           d="m 171.02402,135.65459 0.29423,0.51039 0.46628,0.26487 0.59808,-0.11919 0.99202,-0.55575 0.73545,-0.54613 1.23898,-1.21568 0.93367,-1.19566 0.5167,-0.92751 0.67305,-1.53854 0.5175,-1.35141 0.1984,-0.9379 0.0666,-0.84212 -0.16605,-0.6953 -0.43725,-0.45684 h -0.5079 l -0.57662,0.63717 -0.82112,1.32424 -1.21145,1.52627 -1.57797,1.44822 -1.33591,1.02268 -1.07037,0.72565 -1.05503,0.52675 -0.85378,0.25807 -0.61285,0.26241 -0.25308,0.57861 -0.10317,0.95136 0.13578,0.81961 0.26798,0.45303 0.35195,0.11593 0.27438,-0.16942 -0.003,-0.75552 0.15066,-0.56158 0.45458,-0.51025 0.53873,-0.36745 0.5161,0.0176 0.35184,0.22221 0.21576,0.48779 z"
           id="path1621" />
        <path
           style="fill:#fd99ac;fill-opacity:1;stroke:none;stroke-width:0.135908px;stroke-linecap:butt;stroke-linejoin:miter;stroke-opacity:1"
           d="m 165.68193,132.22953 0.38971,0.44651 0.60117,0.22013 0.50928,0.0216 -0.21312,-0.41616 -0.16402,-0.77775 0.11395,-0.60218 0.47419,-0.72409 0.60362,-0.30212 0.36715,-0.007 0.77537,0.5327 0.41832,0.63792 0.46422,0.65261 0.47856,0.0549 0.72497,-0.42347 1.31816,-0.94479 1.18323,-1.06311 1.21615,-1.43651 1.01817,-1.45689 0.86688,-1.52523 0.40089,-0.82601 0.43939,-0.95694 0.22421,-0.97642 -0.002,-0.7993 -0.45309,-0.53235 -0.54974,-0.36891 -0.66902,-0.21445 -0.46161,0.42899 -0.49539,0.76947 -0.58327,1.2142 -1.29609,1.47013 -1.30819,1.35758 -1.113,0.93236 -1.30919,0.93354 -1.00456,0.48629 -1.17943,0.39648 -0.81937,0.46909 -0.60305,0.60317 -0.35892,1.11222 -0.11331,1.01314 z"
           id="path1623" />
        <path
           style="fill:#fd99ac;fill-opacity:1;stroke:none;stroke-width:0.135908px;stroke-linecap:butt;stroke-linejoin:miter;stroke-opacity:1"
           d="m 164.89545,125.7269 0.0577,0.88592 0.28566,0.56627 0.56677,0.48771 0.54851,0.10169 0.54836,-0.0226 -0.45496,-0.74337 -0.41388,-0.57466 -0.10856,-0.76915 0.26945,-0.66727 0.51279,-0.74489 0.75293,-0.38881 0.69732,0.0198 0.63305,0.18391 0.47173,0.5761 0.2391,0.75383 0.23506,0.6276 0.33424,0.28759 0.55196,-0.11643 0.86737,-0.78528 1.13599,-1.1244 1.08159,-1.55607 1.0739,-1.84187 0.64338,-1.70609 0.51105,-1.7471 0.0706,-1.33562 -0.0671,-1.14145 -0.56903,-1.23871 -0.52585,-0.60487 -0.86927,-0.70252 -0.80934,-0.35456 -1.28749,-0.22133 -1.10941,0.1757 -0.66059,0.2542 -0.53123,0.32351 -0.0584,0.57466 0.0635,0.72204 0.48941,0.8696 0.31628,0.76717 0.20325,1.19823 0.12088,1.06898 -0.36959,0.9191 -1.60572,1.30796 -1.0667,1.23148 -1.28977,1.48679 -0.86898,1.25916 -0.41747,0.86769 z"
           id="path1625" />
      </g>
      <g
         inkscape:groupmode="layer"
         id="g1639"
         inkscape:label="Nails"
         style="display:inline">
        <path
           style="fill:#2e97f1;fill-opacity:1;stroke:none;stroke-width:0.135908px;stroke-linecap:butt;stroke-linejoin:miter;stroke-opacity:1"
           d="m 142.23702,134.31535 -0.28814,0.331 -0.0596,0.58141 0.36344,0.70904 0.83399,0.89727 0.51534,0.36373 0.46965,0.19387 0.50747,-0.10969 0.40337,-0.25002 0.49507,-0.56907 0.17948,-0.56715 -0.0108,-0.64165 -0.16713,-0.55283 -0.3948,-0.46666 -0.38239,-0.33722 -1.04358,-0.0684 -0.88855,0.11403 z"
           id="path1629" />
        <path
           style="fill:#2e97f1;fill-opacity:1;stroke:none;stroke-width:0.135908px;stroke-linecap:butt;stroke-linejoin:miter;stroke-opacity:1"
           d="m 172.50267,138.04456 -0.42337,0.13223 -0.35441,0.35721 0.0446,0.54031 0.21495,0.38965 0.5735,-0.0469 0.44754,-0.0869 0.60578,-0.25916 -0.22987,-0.42842 -0.37578,-0.48087 z"
           id="path1631"
           sodipodi:nodetypes="ccccccccccc" />
        <path
           style="fill:#2e97f1;fill-opacity:1;stroke:none;stroke-width:0.135908px;stroke-linecap:butt;stroke-linejoin:miter;stroke-opacity:1"
           d="m 169.80211,134.75193 -0.37786,0.18785 -0.267,0.32287 -0.14745,0.3375 -0.0722,0.44752 0.0902,0.40593 0.0461,0.19493 0.43027,0.15564 0.50411,-0.004 0.42889,-0.0795 0.31506,-0.25463 0.16998,-0.29036 -0.12487,-0.61854 -0.24374,-0.45506 -0.26036,-0.33639 -0.28488,-0.0723 z"
           id="path1633" />
        <path
           style="fill:#2e97f1;fill-opacity:1;stroke:none;stroke-width:0.135908px;stroke-linecap:butt;stroke-linejoin:miter;stroke-opacity:1"
           d="m 167.24466,131.1262 -0.10989,0.29079 0.03,0.5445 0.15709,0.37956 0.11663,0.27455 0.26385,0.0951 c 0,0 0.31289,-0.009 0.34202,-0.0182 0.0291,-0.009 0.49405,-0.14205 0.51936,-0.14752 0.0253,-0.005 0.56825,-0.26816 0.56825,-0.26816 l 0.38959,-0.32126 -0.38722,-0.7091 -0.31196,-0.45534 -0.37787,-0.33955 -0.39032,-0.0189 -0.53265,0.2314 -0.25318,0.35933 z"
           id="path1635" />
        <path
           style="fill:#2e97f1;fill-opacity:1;stroke:none;stroke-width:0.135908px;stroke-linecap:butt;stroke-linejoin:miter;stroke-opacity:1"
           d="m 167.05117,124.40702 -0.64377,0.71527 -0.1481,0.53582 -0.0297,0.45855 0.37206,0.67395 0.42469,0.44175 0.42439,0.25706 0.62229,0.0233 0.61947,-0.17663 0.46702,-0.33358 0.22115,-0.39937 0.0125,-0.57951 -0.24681,-0.72232 -0.43615,-0.74605 -0.51546,-0.35649 -0.44546,-0.10509 -0.48726,0.15318 z"
           id="path1637" />
      </g>
    </g>
  </g>
</svg>
